<svg id="svg" version="1.1" xmlns="http://www.w3.org/2000/svg" xmlns:xlink="http://www.w3.org/1999/xlink" width="400" height="400" viewBox="0, 0, 400,400"><g id="svgg"><path id="path0" d="M180.000 27.878 C 179.450 27.970,178.457 28.294,177.793 28.598 C 177.033 28.945,175.946 29.063,174.853 28.916 C 173.670 28.758,173.020 28.845,172.806 29.190 C 172.634 29.468,171.664 29.719,170.649 29.748 C 169.635 29.777,168.804 29.898,168.802 30.017 C 168.801 30.137,167.675 30.459,166.300 30.734 C 164.925 31.008,163.247 31.405,162.572 31.616 C 161.896 31.827,161.009 32.000,160.600 32.000 C 160.191 32.000,159.304 32.168,158.628 32.373 C 157.953 32.578,156.680 32.923,155.800 33.140 C 152.431 33.970,150.451 34.565,146.000 36.086 C 143.470 36.951,140.590 37.924,139.600 38.249 C 138.610 38.574,137.412 39.032,136.938 39.267 C 136.464 39.502,135.892 39.580,135.666 39.441 C 135.440 39.301,135.141 39.373,135.000 39.600 C 134.660 40.151,131.998 41.246,131.599 41.000 C 131.426 40.892,131.181 41.074,131.054 41.402 C 130.928 41.731,130.547 42.000,130.207 42.000 C 129.867 42.000,129.277 42.170,128.895 42.377 C 128.513 42.584,125.950 43.867,123.200 45.228 C 105.179 54.146,84.825 68.725,74.832 79.874 C 74.080 80.713,71.911 83.110,70.013 85.200 C 66.598 88.960,63.750 92.320,62.200 94.417 C 61.760 95.012,60.592 96.557,59.604 97.850 C 58.616 99.142,57.376 100.830,56.849 101.600 C 56.322 102.370,55.105 104.124,54.145 105.498 C 53.185 106.872,52.400 108.078,52.400 108.178 C 52.400 108.278,51.880 109.134,51.244 110.080 C 50.607 111.026,49.403 113.060,48.566 114.600 C 47.729 116.140,46.943 117.490,46.819 117.600 C 46.604 117.790,40.725 129.718,40.017 131.400 C 39.831 131.840,39.302 133.053,38.840 134.096 C 38.378 135.138,38.000 136.227,38.000 136.516 C 38.000 136.804,37.853 137.211,37.672 137.420 C 37.492 137.629,36.851 139.150,36.247 140.800 C 35.643 142.450,34.981 144.113,34.775 144.495 C 34.569 144.877,34.400 145.642,34.400 146.195 C 34.400 146.748,34.220 147.200,34.000 147.200 C 33.780 147.200,33.600 147.652,33.600 148.205 C 33.600 148.758,33.429 149.523,33.220 149.905 C 33.011 150.287,32.574 151.680,32.248 153.000 C 31.923 154.320,31.353 156.480,30.982 157.800 C 30.611 159.120,30.148 161.000,29.951 161.978 C 29.755 162.956,29.461 163.856,29.298 163.978 C 29.019 164.186,28.863 165.742,28.832 168.650 C 28.824 169.337,28.612 170.417,28.360 171.050 C 28.109 171.682,27.854 173.121,27.794 174.247 C 27.734 175.373,27.478 176.681,27.224 177.155 C 26.970 177.629,26.875 178.197,27.011 178.418 C 27.404 179.053,26.440 184.417,25.822 185.035 C 25.421 185.436,25.304 186.359,25.407 188.297 C 25.486 189.784,25.587 196.310,25.630 202.800 C 25.673 209.290,25.779 214.150,25.865 213.600 C 26.225 211.281,27.302 208.443,27.927 208.163 C 28.869 207.741,30.400 207.593,30.400 207.924 C 30.400 208.076,32.065 208.237,34.100 208.282 C 36.135 208.327,38.385 208.385,39.100 208.411 C 39.815 208.436,40.683 208.174,41.029 207.828 C 41.820 207.037,42.800 207.014,42.800 207.787 C 42.800 208.288,43.886 208.350,50.200 208.209 C 54.270 208.119,57.600 208.183,57.600 208.353 C 57.600 209.353,60.178 208.149,61.333 206.609 C 62.030 205.679,64.773 202.236,67.430 198.959 C 75.690 188.767,108.459 146.500,192.196 38.028 C 196.175 32.874,199.628 28.591,199.868 28.511 C 200.109 28.430,203.333 32.288,207.034 37.082 C 333.778 201.316,341.600 211.277,341.600 208.438 C 341.600 208.254,343.265 208.090,345.300 208.076 C 347.335 208.061,349.270 208.041,349.600 208.031 C 351.085 207.987,355.215 208.362,355.555 208.572 C 355.762 208.700,356.007 208.579,356.099 208.302 C 356.212 207.964,356.909 207.844,358.233 207.935 C 359.957 208.054,365.081 208.090,366.200 207.991 C 367.010 207.920,370.029 208.296,370.226 208.493 C 371.166 209.433,373.414 207.568,373.655 205.648 C 374.412 199.626,374.020 177.507,373.146 176.967 C 372.956 176.849,372.800 175.593,372.800 174.176 C 372.800 172.725,372.625 171.600,372.400 171.600 C 372.180 171.600,372.000 170.698,372.000 169.595 C 372.000 168.492,371.836 167.277,371.635 166.895 C 371.435 166.513,371.050 165.120,370.781 163.800 C 370.310 161.495,369.170 156.940,368.327 154.000 C 368.106 153.230,367.832 152.013,367.719 151.296 C 367.605 150.579,367.351 149.894,367.156 149.773 C 366.960 149.652,366.800 149.124,366.800 148.600 C 366.800 148.076,366.620 147.536,366.400 147.400 C 366.180 147.264,366.000 146.711,366.000 146.171 C 366.000 145.631,365.827 144.877,365.615 144.495 C 365.403 144.113,364.574 142.005,363.774 139.810 C 362.974 137.616,361.960 135.006,361.520 134.010 C 361.080 133.015,360.569 131.840,360.383 131.400 C 359.675 129.718,353.796 117.790,353.581 117.600 C 353.457 117.490,352.671 116.140,351.834 114.600 C 350.997 113.060,349.793 111.026,349.156 110.080 C 348.520 109.134,348.000 108.277,348.000 108.176 C 348.000 107.849,340.847 97.725,339.225 95.755 C 338.661 95.071,337.390 93.455,336.400 92.165 C 335.410 90.876,332.620 87.657,330.200 85.014 C 327.780 82.371,325.440 79.805,325.000 79.312 C 320.256 74.002,304.963 61.561,296.640 56.240 C 288.333 50.930,275.676 44.135,268.900 41.346 C 267.965 40.961,267.200 40.490,267.200 40.299 C 267.200 40.109,267.033 40.056,266.830 40.181 C 266.626 40.307,265.951 40.205,265.330 39.955 C 263.457 39.201,262.666 38.903,261.200 38.400 C 260.430 38.136,259.440 37.770,259.000 37.587 C 257.797 37.089,250.028 34.572,248.200 34.089 C 244.340 33.069,240.638 32.148,238.400 31.650 C 237.410 31.430,235.393 30.969,233.918 30.625 C 232.443 30.281,230.823 29.999,230.318 29.998 C 229.813 29.996,228.860 29.713,228.200 29.368 C 227.398 28.949,226.470 28.818,225.400 28.973 C 224.374 29.122,223.411 29.001,222.716 28.635 C 221.739 28.120,220.066 27.822,219.000 27.971 C 217.756 28.146,181.865 27.998,181.684 27.818 C 181.565 27.698,181.362 27.625,181.233 27.654 C 181.105 27.684,180.550 27.785,180.000 27.878 M173.400 68.257 C 170.760 71.694,168.105 75.230,167.500 76.113 L 166.400 77.720 166.406 138.960 C 166.409 172.642,166.556 200.426,166.731 200.702 C 166.984 201.100,173.910 201.183,200.025 201.102 L 233.000 201.000 233.101 138.959 L 233.203 76.918 227.501 69.480 C 224.366 65.389,221.575 62.033,221.300 62.021 C 220.902 62.004,220.800 74.579,220.800 123.618 L 220.800 185.236 219.818 186.218 L 218.836 187.200 200.072 187.200 C 181.702 187.200,181.286 187.183,180.255 186.372 L 179.203 185.544 179.101 123.905 C 179.034 83.255,178.864 62.223,178.600 62.137 C 178.380 62.066,176.040 64.820,173.400 68.257 " stroke="none" fill="#c30404" fill-rule="evenodd"></path><path id="path1" d="M193.975 41.882 C 190.799 46.006,186.985 50.975,185.500 52.925 L 182.800 56.470 182.800 119.835 L 182.800 183.200 200.000 183.200 L 217.200 183.200 217.200 119.839 L 217.200 56.478 208.797 45.539 C 204.176 39.523,200.250 34.551,200.072 34.492 C 199.895 34.432,197.151 37.758,193.975 41.882 M118.502 140.018 C 116.446 142.746,114.186 145.686,110.981 149.801 L 108.487 153.003 113.144 152.887 C 119.680 152.723,120.622 152.531,115.230 152.460 L 110.661 152.400 111.504 151.500 C 111.968 151.005,112.804 149.970,113.362 149.200 C 113.920 148.430,114.833 147.170,115.390 146.400 C 115.948 145.630,117.036 144.190,117.808 143.200 C 119.391 141.170,120.515 138.945,120.294 138.281 C 120.212 138.037,119.406 138.819,118.502 140.018 M279.601 138.500 C 279.602 139.437,281.371 142.233,284.598 146.400 C 285.365 147.390,286.297 148.650,286.669 149.200 C 287.041 149.750,287.797 150.695,288.348 151.300 L 289.350 152.400 284.775 152.477 L 280.200 152.554 285.600 152.777 C 288.570 152.900,291.061 152.969,291.136 152.931 C 291.210 152.893,290.550 151.903,289.668 150.731 C 286.622 146.683,283.460 142.599,283.217 142.400 C 283.083 142.290,282.289 141.255,281.453 140.100 C 279.861 137.902,279.600 137.676,279.601 138.500 M102.502 160.818 C 100.446 163.546,98.186 166.486,94.981 170.601 L 92.487 173.803 97.144 173.687 C 103.668 173.524,104.624 173.331,99.259 173.260 L 94.717 173.200 95.859 171.821 C 96.486 171.063,97.540 169.703,98.200 168.800 C 98.860 167.897,100.136 166.294,101.036 165.238 C 102.824 163.139,104.563 159.888,104.307 159.121 C 104.218 158.855,103.406 159.619,102.502 160.818 M295.809 160.043 C 296.205 161.844,297.234 163.296,304.139 171.797 L 305.279 173.200 300.739 173.260 C 295.385 173.331,296.330 173.524,302.823 173.686 L 307.445 173.801 304.515 170.000 C 302.903 167.910,300.317 164.535,298.768 162.500 C 295.674 158.435,295.408 158.214,295.809 160.043 " stroke="none" fill="#fbfbfb" fill-rule="evenodd"></path><path id="path2" d="M146.935 103.937 C 146.720 104.082,145.575 105.460,144.392 107.000 C 143.209 108.540,142.051 109.998,141.820 110.241 C 141.589 110.483,139.960 112.542,138.200 114.817 C 136.440 117.091,134.277 119.863,133.393 120.976 C 132.509 122.089,130.124 125.108,128.093 127.684 L 124.400 132.368 124.400 143.622 C 124.400 154.359,124.362 154.930,123.573 156.038 L 122.746 157.200 115.573 157.200 L 108.400 157.200 108.400 166.438 C 108.400 175.137,108.352 175.744,107.573 176.838 L 106.746 178.000 98.048 178.000 L 89.350 178.000 88.345 179.100 C 87.792 179.705,85.474 182.630,83.193 185.600 C 80.912 188.570,78.270 191.990,77.323 193.200 C 75.138 195.993,63.338 211.275,60.300 215.248 L 58.000 218.255 58.000 254.854 L 58.000 291.453 69.100 302.410 C 75.205 308.437,85.084 318.203,91.054 324.113 L 101.907 334.860 121.054 334.616 C 144.843 334.314,145.356 334.278,145.015 332.918 C 144.315 330.130,144.270 329.472,144.799 329.799 C 145.217 330.058,145.277 329.628,145.099 327.661 C 144.922 325.708,144.992 325.200,145.438 325.200 C 146.238 325.200,146.133 324.673,145.200 324.000 C 144.271 323.331,144.126 322.609,144.987 322.940 C 145.310 323.064,145.681 322.993,145.811 322.783 C 145.941 322.572,145.869 322.400,145.651 322.400 C 145.028 322.400,144.685 320.820,145.179 320.226 C 145.505 319.832,145.505 319.429,145.178 318.712 C 144.830 317.947,144.873 317.400,145.376 316.197 C 145.769 315.255,145.868 314.565,145.630 314.418 C 145.405 314.279,145.317 312.788,145.421 310.877 C 145.569 308.171,145.491 307.533,144.990 307.341 C 144.599 307.191,144.509 306.944,144.739 306.653 C 145.315 305.929,145.717 302.400,145.225 302.400 C 144.632 302.400,144.692 301.317,145.300 301.033 C 145.700 300.847,145.700 300.753,145.300 300.567 C 144.706 300.289,144.626 299.200,145.200 299.200 C 145.779 299.200,145.693 297.704,145.100 297.464 C 144.746 297.320,144.728 297.165,145.038 296.930 C 145.904 296.278,145.978 293.786,145.168 292.557 C 144.202 291.092,144.207 290.800,145.200 290.800 C 146.160 290.800,146.204 290.547,145.386 289.729 C 144.994 289.337,144.905 288.950,145.139 288.658 C 145.578 288.111,145.262 285.600,144.755 285.600 C 144.560 285.600,144.400 285.420,144.400 285.200 C 144.400 284.980,144.760 284.800,145.200 284.800 C 145.640 284.800,146.000 284.620,146.000 284.400 C 146.000 284.180,145.799 284.000,145.553 284.000 C 145.143 284.000,145.186 283.204,145.683 281.600 C 145.785 281.270,145.793 281.135,145.701 281.300 C 145.609 281.465,145.387 281.600,145.209 281.600 C 144.805 281.600,144.879 279.482,145.294 279.177 C 145.765 278.832,146.013 275.055,145.582 274.789 C 145.370 274.658,145.563 274.162,146.015 273.676 C 146.651 272.993,146.699 272.800,146.231 272.800 C 145.603 272.800,144.000 271.297,144.000 270.707 C 144.000 270.519,144.225 270.394,144.500 270.430 C 145.657 270.580,146.000 270.345,146.000 269.400 C 146.000 268.850,145.820 268.400,145.600 268.400 C 145.380 268.400,145.200 268.130,145.200 267.800 C 145.200 267.470,145.470 267.200,145.800 267.200 C 146.130 267.200,146.400 267.020,146.400 266.800 C 146.400 266.580,146.239 266.400,146.043 266.400 C 145.395 266.400,145.226 265.244,145.683 263.933 C 145.977 263.091,145.994 262.598,145.731 262.510 C 145.306 262.369,145.619 259.341,146.147 258.485 C 146.312 258.218,146.309 257.776,146.140 257.503 C 145.663 256.730,145.520 252.400,145.972 252.400 C 146.190 252.400,146.340 251.905,146.305 251.300 C 146.271 250.695,146.383 249.615,146.553 248.900 C 146.811 247.820,146.748 247.600,146.182 247.600 C 145.638 247.600,145.548 247.358,145.740 246.400 C 145.885 245.674,145.814 245.200,145.558 245.200 C 144.932 245.200,145.577 242.706,146.352 242.130 C 146.942 241.692,146.932 241.599,146.241 241.087 C 145.520 240.553,145.514 240.431,146.118 238.658 C 146.756 236.786,146.640 235.688,145.360 231.500 C 145.224 231.053,145.359 230.800,145.735 230.800 C 146.421 230.800,146.340 221.257,145.650 220.831 C 145.195 220.550,146.528 218.800,147.197 218.800 C 147.456 218.800,147.591 218.575,147.499 218.300 C 147.407 218.025,147.044 217.798,146.694 217.795 C 145.735 217.787,145.345 217.206,146.012 216.778 C 146.528 216.446,146.527 216.351,146.000 216.000 C 145.544 215.696,145.517 215.524,145.888 215.284 C 146.631 214.802,146.740 208.057,146.012 207.607 C 145.566 207.332,145.552 207.140,145.940 206.673 C 146.253 206.295,146.368 205.209,146.260 203.642 C 146.129 201.747,146.216 201.200,146.646 201.200 C 147.288 201.200,147.386 200.562,146.800 200.200 C 146.234 199.850,146.303 198.507,146.900 198.258 C 147.264 198.107,147.209 197.895,146.700 197.481 C 145.737 196.698,145.799 195.854,146.800 196.116 C 147.240 196.231,147.600 196.162,147.600 195.963 C 147.600 195.763,147.240 195.600,146.800 195.600 C 146.267 195.600,146.000 195.333,146.000 194.800 C 146.000 194.360,146.202 194.000,146.449 194.000 C 146.781 194.000,146.781 193.859,146.449 193.459 C 145.920 192.822,146.310 189.097,146.869 189.443 C 147.069 189.566,147.146 189.247,147.041 188.734 C 146.559 186.371,146.418 183.200,146.797 183.200 C 147.018 183.200,147.200 182.570,147.200 181.800 C 147.200 181.030,147.020 180.400,146.800 180.400 C 146.314 180.400,146.263 179.320,146.740 179.133 C 147.380 178.882,147.586 175.600,146.962 175.600 C 146.653 175.600,146.400 175.330,146.400 175.000 C 146.400 174.670,146.666 174.400,146.990 174.400 C 147.647 174.400,147.401 172.015,146.696 171.551 C 146.463 171.398,146.487 170.985,146.758 170.479 C 147.100 169.840,147.064 169.522,146.599 169.056 C 145.852 168.309,145.840 168.000,146.557 168.000 C 147.135 168.000,147.600 167.171,147.600 166.140 C 147.600 165.728,147.355 165.624,146.800 165.800 C 146.126 166.014,146.004 165.877,146.028 164.927 C 146.053 163.937,146.098 163.897,146.400 164.600 C 146.589 165.040,146.756 165.175,146.772 164.900 C 146.787 164.625,147.070 164.400,147.400 164.400 C 148.285 164.400,148.130 163.559,147.200 163.316 C 146.320 163.086,146.161 162.595,146.832 162.180 C 147.073 162.031,147.155 161.473,147.016 160.923 C 146.857 160.286,146.916 160.025,147.184 160.190 C 147.418 160.335,147.600 160.102,147.600 159.657 C 147.600 159.222,147.375 158.784,147.100 158.683 C 146.700 158.537,146.700 158.394,147.100 157.970 C 147.879 157.144,147.709 155.689,146.800 155.400 C 145.878 155.107,145.732 154.078,146.567 153.757 C 146.999 153.592,147.100 152.910,146.989 150.903 C 146.909 149.453,147.026 147.925,147.249 147.508 C 147.537 146.971,147.513 146.577,147.169 146.163 C 146.787 145.702,146.788 145.345,147.173 144.499 C 147.515 143.748,147.533 143.378,147.232 143.277 C 146.701 143.100,146.660 141.734,147.175 141.415 C 147.727 141.074,147.396 129.168,146.825 128.815 C 146.497 128.612,146.485 128.228,146.784 127.441 C 147.013 126.840,147.200 125.907,147.200 125.369 C 147.200 124.830,147.425 124.021,147.700 123.570 C 148.127 122.871,148.083 122.665,147.402 122.160 C 146.783 121.701,146.722 121.496,147.128 121.244 C 147.527 120.998,147.606 119.924,147.461 116.760 C 147.330 113.927,147.418 112.420,147.735 112.035 C 148.091 111.602,148.083 111.430,147.700 111.302 C 146.847 111.015,147.151 110.002,148.100 109.968 C 148.595 109.951,148.775 109.846,148.500 109.735 C 148.225 109.624,148.000 109.278,148.000 108.967 C 148.000 108.655,147.820 108.400,147.600 108.400 C 147.056 108.400,147.091 106.915,147.643 106.574 C 147.952 106.383,147.921 106.192,147.543 105.942 C 147.100 105.651,147.129 105.486,147.700 105.048 C 148.720 104.266,148.002 103.222,146.935 103.937 M146.635 178.298 C 146.205 178.728,145.977 178.126,146.279 177.357 C 146.562 176.636,146.583 176.635,146.724 177.331 C 146.804 177.734,146.765 178.169,146.635 178.298 " stroke="none" fill="#041384" fill-rule="evenodd"></path><path id="path3" d="M181.826 27.158 C 181.445 27.775,182.554 27.886,183.600 27.337 L 184.600 26.812 183.324 26.806 C 182.622 26.803,181.948 26.961,181.826 27.158 M216.974 27.417 C 218.184 28.048,219.442 27.915,219.002 27.203 C 218.865 26.981,218.088 26.801,217.276 26.802 L 215.800 26.805 216.974 27.417 M175.400 28.000 C 175.264 28.220,175.423 28.400,175.753 28.400 C 176.083 28.400,176.464 28.220,176.600 28.000 C 176.736 27.780,176.577 27.600,176.247 27.600 C 175.917 27.600,175.536 27.780,175.400 28.000 M223.852 28.192 C 223.989 28.548,224.358 28.785,224.671 28.720 C 225.594 28.526,225.478 27.811,224.502 27.672 C 223.814 27.575,223.662 27.696,223.852 28.192 M169.817 28.772 C 169.396 29.453,170.396 29.661,171.032 29.026 C 171.599 28.458,171.582 28.400,170.852 28.400 C 170.409 28.400,169.944 28.568,169.817 28.772 M229.452 28.992 C 229.589 29.348,229.958 29.585,230.271 29.520 C 231.194 29.326,231.078 28.611,230.102 28.472 C 229.414 28.375,229.262 28.496,229.452 28.992 M165.017 29.572 C 164.587 30.269,165.674 30.498,166.324 29.847 C 166.921 29.251,166.904 29.200,166.109 29.200 C 165.635 29.200,165.144 29.368,165.017 29.572 M186.945 45.700 C 179.950 54.775,167.013 71.560,158.196 83.000 C 149.379 94.440,136.960 110.550,130.598 118.800 C 124.237 127.050,114.174 140.100,108.237 147.800 C 102.299 155.500,94.807 165.220,91.587 169.400 C 86.298 176.267,80.871 183.301,61.258 208.707 C 57.816 213.166,54.883 217.216,54.740 217.707 C 54.597 218.198,54.462 235.248,54.440 255.596 L 54.400 292.592 77.304 315.496 L 100.208 338.400 136.790 338.400 L 173.372 338.400 186.680 325.114 L 199.988 311.828 213.320 325.120 L 226.651 338.412 263.329 338.306 L 300.006 338.200 322.868 315.328 L 345.730 292.455 345.485 254.831 L 345.240 217.207 337.453 207.103 C 333.171 201.546,324.252 189.980,317.634 181.400 C 311.016 172.820,300.327 158.960,293.881 150.600 C 287.435 142.240,276.956 128.650,270.595 120.400 C 253.164 97.795,228.246 65.460,213.493 46.300 C 206.251 36.895,200.176 29.200,199.994 29.200 C 199.812 29.200,193.940 36.625,186.945 45.700 M233.819 29.765 C 234.244 30.075,234.731 30.243,234.902 30.137 C 235.439 29.805,234.791 29.200,233.900 29.200 C 233.068 29.200,233.066 29.214,233.819 29.765 M161.067 30.267 C 160.569 30.765,160.797 31.200,161.557 31.200 C 161.974 31.200,162.418 30.930,162.545 30.600 C 162.780 29.987,161.610 29.724,161.067 30.267 M237.768 30.626 C 238.112 30.970,238.578 31.137,238.803 30.998 C 239.409 30.624,238.874 30.000,237.948 30.000 C 237.218 30.000,237.201 30.058,237.768 30.626 M157.000 31.200 C 156.864 31.420,156.144 31.600,155.400 31.600 C 154.656 31.600,153.936 31.780,153.800 32.000 C 153.664 32.220,152.944 32.400,152.200 32.400 C 151.456 32.400,150.736 32.580,150.600 32.800 C 150.464 33.020,149.924 33.200,149.400 33.200 C 148.876 33.200,148.336 33.380,148.200 33.600 C 148.064 33.820,147.344 34.000,146.600 34.000 C 145.856 34.000,145.136 34.180,145.000 34.400 C 144.864 34.620,144.324 34.800,143.800 34.800 C 143.276 34.800,142.736 34.980,142.600 35.200 C 142.464 35.420,141.924 35.600,141.400 35.600 C 140.876 35.600,140.336 35.780,140.200 36.000 C 140.064 36.220,139.600 36.400,139.168 36.400 C 138.454 36.400,135.200 38.184,135.200 38.576 C 135.200 39.140,139.314 37.989,141.695 36.759 C 142.077 36.562,142.741 36.400,143.171 36.400 C 143.601 36.400,144.064 36.220,144.200 36.000 C 144.336 35.780,144.865 35.600,145.375 35.600 C 145.885 35.600,146.536 35.318,146.821 34.974 C 147.139 34.591,147.683 34.435,148.225 34.570 C 148.758 34.704,149.308 34.552,149.611 34.187 C 149.910 33.827,150.426 33.681,150.885 33.827 C 151.347 33.974,151.961 33.797,152.414 33.388 C 152.851 32.992,153.454 32.812,153.841 32.961 C 154.211 33.102,154.946 32.935,155.475 32.588 C 156.013 32.235,156.782 32.067,157.220 32.206 C 157.711 32.362,158.397 32.146,159.056 31.628 L 160.108 30.800 158.678 30.800 C 157.891 30.800,157.136 30.980,157.000 31.200 M241.000 31.361 C 241.970 32.105,243.331 32.196,243.103 31.500 C 243.012 31.225,242.322 30.943,241.569 30.873 C 240.265 30.753,240.238 30.776,241.000 31.361 M244.100 31.876 C 244.485 31.976,244.800 32.225,244.800 32.429 C 244.800 32.633,245.408 32.800,246.151 32.800 C 246.894 32.800,247.725 33.068,247.997 33.396 C 248.293 33.753,248.846 33.903,249.375 33.770 C 249.917 33.635,250.461 33.791,250.779 34.174 C 251.064 34.518,251.805 34.800,252.425 34.800 C 253.045 34.800,253.664 34.980,253.800 35.200 C 253.936 35.420,254.476 35.600,255.000 35.600 C 255.524 35.600,256.064 35.780,256.200 36.000 C 256.336 36.220,256.851 36.400,257.344 36.400 C 257.837 36.400,258.411 36.544,258.620 36.719 C 258.829 36.895,259.990 37.372,261.200 37.779 C 262.410 38.186,263.580 38.648,263.800 38.807 C 264.352 39.205,267.470 39.742,267.107 39.376 C 266.738 39.004,265.301 38.170,264.000 37.573 C 263.450 37.320,262.687 36.953,262.305 36.757 C 261.923 36.561,261.259 36.400,260.829 36.400 C 260.399 36.400,259.936 36.220,259.800 36.000 C 259.664 35.780,259.124 35.600,258.600 35.600 C 258.076 35.600,257.536 35.420,257.400 35.200 C 257.264 34.980,256.724 34.800,256.200 34.800 C 255.676 34.800,255.136 34.620,255.000 34.400 C 254.864 34.180,254.324 34.000,253.800 34.000 C 253.276 34.000,252.736 33.820,252.600 33.600 C 252.464 33.380,251.744 33.200,251.000 33.200 C 250.256 33.200,249.536 33.020,249.400 32.800 C 249.264 32.580,248.544 32.400,247.800 32.400 C 247.056 32.400,246.336 32.220,246.200 32.000 C 246.064 31.780,245.378 31.621,244.676 31.646 C 243.974 31.672,243.715 31.775,244.100 31.876 M209.065 44.900 L 217.800 56.200 217.904 119.319 C 217.975 162.613,217.876 182.684,217.590 183.219 C 217.075 184.180,183.428 184.468,182.480 183.520 C 182.111 183.151,182.000 168.448,182.000 119.776 L 182.000 56.512 190.819 45.056 C 195.670 38.755,199.794 33.600,199.984 33.600 C 200.175 33.600,204.261 38.685,209.065 44.900 M132.493 39.380 C 130.965 40.224,130.933 40.507,132.400 40.207 C 134.060 39.866,135.487 38.774,134.186 38.839 C 133.754 38.861,132.992 39.104,132.493 39.380 M267.840 40.159 C 268.019 40.627,270.728 41.308,271.125 40.985 C 271.332 40.817,268.718 39.600,268.151 39.600 C 267.862 39.600,267.722 39.852,267.840 40.159 M127.496 41.477 C 126.338 42.078,125.701 42.640,125.870 42.912 C 126.070 43.236,126.191 43.227,126.307 42.880 C 126.395 42.616,126.902 42.400,127.433 42.400 C 127.965 42.400,128.400 42.220,128.400 42.000 C 128.400 41.780,128.831 41.600,129.357 41.600 C 129.884 41.600,130.418 41.330,130.545 41.000 C 130.878 40.131,129.748 40.308,127.496 41.477 M271.855 41.800 C 271.982 42.130,272.416 42.400,272.819 42.400 C 273.223 42.400,273.664 42.580,273.800 42.800 C 273.936 43.020,274.397 43.200,274.824 43.200 C 275.251 43.200,275.600 43.380,275.600 43.600 C 275.600 43.820,275.960 44.000,276.400 44.000 C 276.840 44.000,277.200 44.180,277.200 44.400 C 277.200 44.620,277.560 44.800,278.000 44.800 C 278.440 44.800,278.800 44.980,278.800 45.200 C 278.800 45.420,279.160 45.600,279.600 45.600 C 280.040 45.600,280.400 45.780,280.400 46.000 C 280.400 46.220,280.760 46.400,281.200 46.400 C 281.640 46.400,282.000 46.562,282.000 46.760 C 282.000 47.198,284.994 48.800,285.812 48.800 C 286.136 48.800,286.400 48.939,286.400 49.109 C 286.400 49.279,287.075 49.769,287.900 50.199 C 288.725 50.628,289.957 51.389,290.638 51.889 C 291.319 52.390,292.022 52.800,292.200 52.800 C 292.378 52.800,293.114 53.250,293.836 53.800 C 294.557 54.350,295.256 54.800,295.390 54.800 C 295.523 54.800,296.163 55.192,296.811 55.672 C 297.460 56.151,298.090 56.443,298.213 56.320 C 298.336 56.198,298.954 56.571,299.587 57.149 C 301.518 58.913,302.911 60.000,303.239 60.000 C 303.410 60.000,304.142 60.540,304.864 61.200 C 305.587 61.860,306.408 62.400,306.689 62.400 C 306.970 62.400,307.200 62.553,307.200 62.740 C 307.200 62.927,308.217 63.872,309.460 64.840 C 310.704 65.808,312.920 67.680,314.385 69.000 C 315.850 70.320,318.245 72.300,319.706 73.400 C 321.168 74.500,322.372 75.562,322.382 75.759 C 322.392 75.956,324.085 77.846,326.145 79.959 C 328.205 82.072,330.797 84.817,331.904 86.059 C 333.012 87.302,334.215 88.652,334.578 89.059 C 336.821 91.578,345.200 102.694,345.200 103.150 C 345.200 103.329,345.560 103.802,346.000 104.200 C 346.440 104.598,346.800 105.153,346.800 105.433 C 346.800 105.713,347.244 106.291,347.786 106.718 C 348.329 107.145,348.644 107.622,348.487 107.780 C 348.330 107.937,348.473 108.276,348.806 108.533 C 349.138 108.790,349.629 109.495,349.896 110.100 C 350.164 110.705,350.567 111.200,350.791 111.200 C 351.016 111.200,351.208 111.515,351.217 111.900 C 351.227 112.285,351.664 113.320,352.189 114.200 C 352.714 115.080,354.264 117.960,355.633 120.600 C 357.002 123.240,358.534 126.055,359.038 126.856 C 359.542 127.657,359.870 128.396,359.768 128.499 C 359.665 128.602,359.844 128.905,360.167 129.172 C 360.489 129.440,360.659 129.902,360.545 130.199 C 360.431 130.496,360.712 130.939,361.169 131.183 C 362.365 131.824,362.260 130.976,360.800 128.200 C 360.140 126.945,359.600 125.691,359.600 125.414 C 359.600 124.771,355.328 116.410,354.569 115.569 C 354.256 115.221,354.000 114.797,354.000 114.625 C 354.000 114.454,353.100 112.968,352.000 111.323 C 350.900 109.679,350.000 108.243,350.000 108.134 C 350.000 107.841,343.414 98.103,341.794 96.000 C 341.031 95.010,340.100 93.750,339.724 93.200 C 339.349 92.650,338.222 91.256,337.221 90.102 C 336.219 88.948,334.320 86.730,333.000 85.172 C 330.466 82.181,325.837 77.490,319.216 71.200 C 315.108 67.299,313.702 66.146,309.200 62.989 C 307.770 61.986,304.710 59.832,302.400 58.202 C 295.682 53.462,290.752 50.240,288.600 49.184 C 287.500 48.644,285.854 47.707,284.942 47.101 C 284.030 46.496,283.027 46.000,282.712 46.000 C 282.398 46.000,280.007 44.920,277.400 43.600 C 272.480 41.109,271.464 40.779,271.855 41.800 M118.199 45.744 C 115.118 47.315,111.878 49.039,110.999 49.575 C 110.119 50.112,108.770 50.895,108.000 51.316 C 107.230 51.737,106.140 52.513,105.578 53.041 C 105.016 53.568,104.418 54.000,104.250 54.000 C 103.875 54.000,96.881 58.691,94.400 60.606 C 93.410 61.371,91.970 62.448,91.200 63.000 C 88.343 65.049,86.339 66.658,83.975 68.800 C 79.939 72.457,69.582 82.932,66.600 86.373 C 65.060 88.150,62.783 90.728,61.540 92.102 C 60.298 93.476,58.899 95.320,58.432 96.200 C 57.964 97.080,57.054 98.520,56.409 99.400 C 54.558 101.924,48.400 111.111,48.400 111.349 C 48.400 111.468,47.966 112.204,47.436 112.985 C 46.906 113.767,45.000 117.330,43.201 120.903 C 41.402 124.476,39.695 127.850,39.407 128.400 C 38.040 131.012,37.200 132.925,37.200 133.426 C 37.200 133.728,36.840 134.617,36.400 135.400 C 35.960 136.183,35.600 137.168,35.600 137.589 C 35.600 138.009,35.420 138.464,35.200 138.600 C 34.980 138.736,34.800 139.276,34.800 139.800 C 34.800 140.324,34.620 140.864,34.400 141.000 C 34.180 141.136,34.000 141.676,34.000 142.200 C 34.000 142.724,33.820 143.264,33.600 143.400 C 33.380 143.536,33.200 144.019,33.200 144.473 C 33.200 145.161,33.300 145.215,33.800 144.800 C 34.130 144.526,34.400 143.951,34.400 143.522 C 34.400 143.094,34.662 142.481,34.983 142.160 C 35.304 141.839,35.475 141.341,35.365 141.053 C 35.254 140.764,35.442 140.297,35.782 140.015 C 36.122 139.733,36.400 139.252,36.400 138.946 C 36.400 138.640,36.562 138.077,36.760 137.695 C 37.257 136.736,39.993 130.090,40.545 128.500 C 40.793 127.785,41.132 127.200,41.298 127.200 C 41.464 127.200,41.600 126.840,41.600 126.400 C 41.600 125.960,41.780 125.600,42.000 125.600 C 42.220 125.600,42.400 125.366,42.400 125.080 C 42.400 124.344,43.341 122.407,43.700 122.403 C 43.865 122.401,44.000 121.950,44.000 121.400 C 44.000 120.850,44.180 120.400,44.400 120.400 C 44.620 120.400,44.800 120.059,44.800 119.643 C 44.800 119.226,45.081 118.778,45.425 118.646 C 45.769 118.514,45.938 118.223,45.800 118.000 C 45.662 117.777,45.831 117.486,46.175 117.354 C 46.519 117.222,46.800 116.950,46.800 116.749 C 46.800 116.547,47.239 115.712,47.776 114.891 C 48.312 114.071,48.807 113.130,48.876 112.800 C 48.944 112.470,49.090 112.110,49.200 112.000 C 49.675 111.525,51.130 109.261,52.027 107.600 C 52.562 106.610,53.118 105.710,53.262 105.600 C 54.091 104.967,56.241 101.306,56.081 100.800 C 55.976 100.470,56.029 100.329,56.199 100.487 C 56.518 100.784,60.362 96.206,62.788 92.640 C 63.551 91.518,64.403 90.457,64.682 90.283 C 64.961 90.109,65.830 89.119,66.614 88.083 C 69.694 84.015,82.676 71.412,88.565 66.774 C 90.305 65.403,92.095 63.993,92.541 63.641 C 92.988 63.288,93.835 62.550,94.424 62.000 C 95.012 61.450,96.137 60.662,96.924 60.250 C 97.710 59.837,98.448 59.252,98.564 58.950 C 98.680 58.647,99.029 58.400,99.338 58.400 C 99.648 58.400,100.129 58.127,100.406 57.793 C 100.683 57.459,101.491 56.910,102.201 56.573 C 102.911 56.236,103.831 55.644,104.246 55.258 C 104.661 54.871,105.585 54.297,106.300 53.980 C 107.015 53.664,107.600 53.298,107.600 53.168 C 107.600 53.037,108.545 52.438,109.700 51.836 C 110.855 51.233,112.520 50.306,113.400 49.775 C 114.280 49.245,116.125 48.259,117.500 47.585 C 118.875 46.911,120.000 46.178,120.000 45.956 C 120.000 45.734,120.165 45.655,120.368 45.780 C 120.570 45.905,121.007 45.736,121.339 45.404 C 121.671 45.072,122.226 44.800,122.571 44.800 C 122.917 44.800,123.200 44.620,123.200 44.400 C 123.200 44.180,123.541 44.000,123.957 44.000 C 124.374 44.000,124.818 43.730,124.945 43.400 C 125.358 42.322,123.951 42.811,118.199 45.744 M179.600 123.147 C 179.600 172.041,179.705 185.189,180.100 185.720 C 180.879 186.770,219.128 186.787,219.895 185.738 C 220.297 185.189,220.400 172.374,220.400 123.147 C 220.400 89.102,220.544 61.158,220.719 61.050 C 221.346 60.663,221.461 60.802,231.923 74.524 L 234.000 77.248 233.994 138.924 C 233.991 172.846,233.844 200.826,233.669 201.102 C 233.416 201.500,226.370 201.583,199.775 201.502 L 166.200 201.400 166.099 139.432 C 166.005 82.179,166.048 77.385,166.664 76.432 C 169.680 71.763,178.706 60.695,179.232 61.020 C 179.453 61.157,179.600 85.931,179.600 123.147 M163.200 142.724 C 163.200 190.359,163.305 203.188,163.700 203.716 C 164.157 204.327,166.822 204.403,194.800 204.598 C 211.630 204.716,227.589 204.900,230.263 205.007 C 232.938 205.115,235.420 205.090,235.778 204.953 C 237.663 204.230,237.600 206.382,237.600 142.960 L 237.600 83.481 239.654 86.194 C 242.133 89.468,243.118 93.200,241.504 93.200 C 241.282 93.200,241.331 93.476,241.614 93.817 C 242.002 94.284,242.014 94.546,241.663 94.897 C 240.856 95.704,241.106 96.518,242.083 96.262 C 242.891 96.051,242.873 96.112,241.883 96.962 C 240.754 97.933,240.465 99.022,241.267 99.289 C 241.794 99.465,242.124 102.282,241.696 102.958 C 241.294 103.592,241.271 107.197,241.667 107.442 C 242.157 107.744,242.072 108.416,241.559 108.300 C 241.316 108.245,241.058 108.695,240.986 109.300 C 240.908 109.954,241.046 110.400,241.327 110.400 C 241.658 110.400,241.788 111.453,241.761 113.900 C 241.740 115.825,241.882 117.835,242.077 118.367 C 242.430 119.330,241.837 120.194,241.125 119.754 C 240.953 119.647,240.922 120.109,241.056 120.780 C 241.250 121.749,241.163 122.000,240.634 122.000 C 240.087 122.000,240.060 122.098,240.482 122.550 C 240.765 122.852,241.251 123.002,241.564 122.882 C 241.921 122.745,242.026 122.834,241.847 123.124 C 241.691 123.377,241.777 123.984,242.039 124.473 C 242.392 125.133,242.397 125.401,242.058 125.514 C 241.758 125.614,241.689 126.215,241.857 127.264 C 242.068 128.587,242.004 128.838,241.482 128.730 C 240.579 128.543,240.554 129.295,241.446 129.785 C 241.861 130.013,242.271 130.241,242.357 130.290 C 242.443 130.340,242.324 130.610,242.092 130.890 C 241.860 131.171,241.670 132.718,241.670 134.330 C 241.670 136.412,241.492 137.457,241.052 137.942 C 240.501 138.551,240.498 138.812,241.023 140.337 C 241.542 141.844,241.542 142.147,241.021 142.891 C 240.496 143.640,240.502 143.786,241.069 144.201 C 241.421 144.458,241.709 145.193,241.710 145.834 C 241.713 148.101,241.241 151.577,240.823 152.357 C 240.254 153.420,240.289 153.617,241.000 153.345 C 241.720 153.068,241.817 153.843,241.100 154.142 C 240.736 154.293,240.791 154.505,241.300 154.919 C 242.022 155.506,242.227 156.036,241.700 155.953 C 240.898 155.826,240.661 156.055,241.200 156.437 C 241.651 156.756,241.676 156.911,241.300 157.064 C 240.679 157.316,241.002 161.090,241.834 163.308 C 242.547 165.208,242.553 165.165,241.600 164.916 C 240.716 164.685,240.446 165.734,241.261 166.237 C 241.578 166.434,241.486 166.694,240.963 167.077 C 240.464 167.441,240.354 167.729,240.640 167.916 C 241.207 168.285,241.727 170.400,241.250 170.400 C 240.579 170.400,240.503 171.384,241.019 173.400 C 241.451 175.089,241.442 175.450,240.965 175.720 C 240.160 176.175,240.251 178.277,241.096 178.750 C 241.739 179.110,241.723 179.199,240.890 179.922 C 239.969 180.721,240.022 182.000,240.976 182.000 C 241.255 182.000,241.467 182.519,241.467 183.200 C 241.467 183.860,241.336 184.400,241.177 184.400 C 241.017 184.400,240.774 184.850,240.636 185.400 C 240.497 185.954,240.076 186.421,239.692 186.446 C 239.080 186.487,239.076 186.513,239.659 186.668 C 240.318 186.843,240.835 188.708,240.833 190.900 C 240.833 191.505,240.974 192.000,241.147 192.000 C 241.320 192.000,241.380 192.558,241.279 193.241 C 241.150 194.120,240.998 194.324,240.755 193.941 C 240.506 193.547,240.411 193.645,240.406 194.300 C 240.403 194.795,240.580 195.200,240.800 195.200 C 241.020 195.200,241.200 195.470,241.200 195.800 C 241.200 196.130,241.008 196.400,240.773 196.400 C 240.516 196.400,240.455 196.758,240.619 197.300 C 241.060 198.753,241.033 198.963,240.400 198.982 C 240.070 198.992,239.818 199.225,239.840 199.500 C 239.947 200.835,240.000 200.898,240.600 200.400 C 241.091 199.992,241.200 200.020,241.200 200.551 C 241.200 200.908,241.028 201.200,240.818 201.200 C 240.274 201.200,239.805 204.030,240.297 204.344 C 240.715 204.610,240.781 211.353,240.369 211.764 C 239.975 212.158,240.465 214.400,240.945 214.406 C 241.249 214.410,241.234 214.517,240.901 214.729 C 240.140 215.212,239.725 221.183,240.422 221.614 C 240.867 221.888,240.826 222.109,240.202 222.798 C 239.607 223.455,239.532 223.800,239.867 224.336 C 240.107 224.719,240.212 225.935,240.104 227.062 C 239.988 228.264,240.080 229.202,240.328 229.355 C 240.869 229.690,240.438 232.419,239.732 233.125 C 239.119 233.738,239.009 234.565,239.588 234.207 C 239.999 233.953,240.300 235.075,240.310 236.900 C 240.313 237.577,240.101 238.000,239.758 238.000 C 239.085 238.000,238.981 240.260,239.644 240.481 C 240.294 240.698,240.322 245.729,239.678 246.506 C 239.240 247.033,239.269 247.199,239.854 247.526 C 240.470 247.871,240.495 248.105,240.070 249.526 C 239.701 250.756,239.697 251.375,240.053 252.156 C 240.418 252.959,240.403 253.314,239.981 253.822 C 238.997 255.008,239.226 257.920,240.325 258.196 C 241.354 258.454,240.885 259.600,239.751 259.600 C 239.021 259.600,239.053 260.004,239.830 260.572 C 240.367 260.965,240.384 261.198,239.945 262.160 C 239.490 263.160,239.520 263.352,240.214 263.860 C 240.826 264.307,240.881 264.503,240.468 264.758 C 240.175 264.939,239.779 266.367,239.578 267.968 C 239.378 269.554,239.124 270.999,239.012 271.180 C 238.900 271.361,239.197 271.610,239.670 271.734 C 240.316 271.903,240.427 272.090,240.112 272.480 C 239.410 273.351,238.791 276.947,239.290 277.256 C 239.835 277.592,240.077 279.600,239.573 279.600 C 239.073 279.600,239.094 281.098,239.596 281.267 C 239.853 281.353,239.838 281.957,239.553 282.986 C 239.234 284.142,239.235 284.612,239.557 284.719 C 240.094 284.898,240.131 286.773,239.615 287.589 C 239.369 287.978,239.405 288.285,239.721 288.489 C 240.084 288.725,240.069 288.884,239.657 289.150 C 239.287 289.389,239.200 289.887,239.382 290.716 C 239.544 291.455,239.450 292.251,239.142 292.744 C 238.718 293.423,238.747 293.678,239.318 294.309 C 240.161 295.241,240.233 297.200,239.424 297.200 C 238.590 297.200,238.286 297.893,238.590 299.102 C 238.803 299.951,238.933 300.045,239.254 299.579 C 239.567 299.124,239.612 299.172,239.463 299.800 C 238.824 302.506,238.789 302.854,239.184 302.610 C 239.422 302.463,239.600 302.715,239.600 303.200 C 239.600 303.666,239.420 303.936,239.200 303.800 C 238.980 303.664,238.800 303.833,238.800 304.176 C 238.800 304.519,238.986 304.800,239.213 304.800 C 239.617 304.800,239.426 308.495,238.936 310.150 C 238.814 310.562,238.947 311.044,239.231 311.219 C 239.637 311.470,239.644 311.665,239.267 312.119 C 239.003 312.438,238.871 312.946,238.974 313.249 C 239.078 313.552,239.242 315.002,239.339 316.470 C 239.436 317.939,239.628 319.321,239.764 319.542 C 239.901 319.764,239.830 320.058,239.607 320.196 C 239.383 320.334,239.200 320.941,239.200 321.544 C 239.200 322.147,239.002 322.838,238.760 323.080 C 238.439 323.401,238.548 323.593,239.160 323.787 C 240.043 324.068,240.306 325.031,239.566 325.278 C 239.003 325.466,238.873 327.507,239.202 331.000 C 239.532 334.510,239.745 334.386,233.351 334.394 L 228.103 334.400 214.253 320.800 C 206.635 313.320,200.248 307.200,200.058 307.200 C 199.868 307.200,193.520 313.380,185.950 320.933 L 172.187 334.667 153.194 334.933 C 142.747 335.079,126.883 335.199,117.941 335.200 L 101.682 335.200 79.641 313.357 L 57.600 291.515 57.600 254.788 L 57.600 218.061 58.548 216.931 C 59.069 216.309,60.464 214.526,61.648 212.970 C 63.644 210.344,70.332 201.665,83.190 185.015 C 89.594 176.721,87.799 177.613,98.090 177.606 L 106.779 177.600 107.390 176.420 C 107.885 175.462,108.000 173.502,108.000 166.020 L 108.000 156.800 115.171 156.800 L 122.342 156.800 123.187 155.725 C 124.005 154.686,124.031 154.286,123.981 143.460 L 123.929 132.270 128.864 125.866 C 131.579 122.344,134.790 118.164,136.000 116.578 C 137.210 114.991,141.107 109.937,144.660 105.346 C 148.212 100.756,151.809 96.100,152.653 95.000 C 158.545 87.316,162.516 82.400,162.831 82.400 C 163.055 82.400,163.200 106.190,163.200 142.724 M361.600 132.600 C 361.600 132.930,361.780 133.200,362.000 133.200 C 362.220 133.200,362.400 133.631,362.400 134.157 C 362.400 134.684,362.670 135.218,363.000 135.345 C 363.778 135.643,363.767 134.858,362.971 133.261 C 362.307 131.931,361.600 131.590,361.600 132.600 M363.353 136.476 C 363.191 136.738,363.270 137.023,363.529 137.110 C 363.788 137.196,364.000 137.691,364.000 138.210 C 364.000 138.728,364.180 139.264,364.400 139.400 C 364.620 139.536,364.800 140.067,364.800 140.581 C 364.800 141.094,365.070 141.618,365.400 141.745 C 366.086 142.008,366.266 140.612,365.600 140.200 C 365.380 140.064,365.200 139.631,365.200 139.238 C 365.200 137.668,363.857 135.661,363.353 136.476 M120.800 145.380 L 120.800 153.561 114.548 153.680 C 110.213 153.763,108.244 153.663,108.126 153.353 C 108.032 153.108,110.321 149.868,113.213 146.153 C 116.105 142.439,118.764 138.905,119.122 138.300 C 120.580 135.835,120.800 136.763,120.800 145.380 M282.830 141.100 C 285.790 145.019,287.409 147.087,290.437 150.815 C 292.825 153.756,292.714 153.819,285.452 153.680 L 279.200 153.561 279.200 145.380 C 279.200 140.881,279.354 137.200,279.543 137.200 C 279.731 137.200,281.211 138.955,282.830 141.100 M365.839 142.737 C 365.580 143.156,365.936 144.704,366.818 147.000 C 368.042 150.186,368.400 151.312,368.400 151.980 C 368.400 152.399,368.687 153.030,369.039 153.382 C 369.391 153.734,369.566 154.311,369.430 154.667 C 369.293 155.022,369.465 155.746,369.812 156.275 C 370.159 156.804,370.342 157.553,370.219 157.939 C 370.097 158.326,370.261 158.993,370.585 159.421 C 370.909 159.849,371.180 160.839,371.187 161.620 C 371.194 162.401,371.363 163.211,371.561 163.420 C 371.760 163.629,372.009 164.160,372.115 164.600 C 372.221 165.040,372.328 164.646,372.354 163.724 C 372.379 162.802,372.220 161.936,372.000 161.800 C 371.780 161.664,371.600 160.764,371.600 159.800 C 371.600 158.836,371.420 157.936,371.200 157.800 C 370.980 157.664,370.800 156.944,370.800 156.200 C 370.800 155.456,370.620 154.736,370.400 154.600 C 370.180 154.464,370.000 153.744,370.000 153.000 C 370.000 152.256,369.820 151.536,369.600 151.400 C 369.380 151.264,369.200 150.724,369.200 150.200 C 369.200 149.676,369.020 149.136,368.800 149.000 C 368.580 148.864,368.400 148.144,368.400 147.400 C 368.400 146.656,368.220 145.936,368.000 145.800 C 367.780 145.664,367.600 145.223,367.600 144.821 C 367.600 143.783,366.209 142.138,365.839 142.737 M32.667 145.867 C 32.060 146.474,32.372 147.722,33.000 147.200 C 33.330 146.926,33.600 146.454,33.600 146.151 C 33.600 145.568,33.113 145.420,32.667 145.867 M31.867 148.267 C 31.179 148.954,31.595 150.031,32.385 149.608 C 32.847 149.361,33.076 148.943,32.942 148.594 C 32.698 147.958,32.297 147.836,31.867 148.267 M30.989 151.687 C 30.613 152.662,30.894 153.240,31.547 152.835 C 31.954 152.582,31.986 152.305,31.673 151.748 C 31.285 151.056,31.234 151.052,30.989 151.687 M30.256 153.878 C 29.703 154.430,29.989 155.979,30.600 155.745 C 30.930 155.618,31.200 155.184,31.200 154.781 C 31.200 153.982,30.664 153.469,30.256 153.878 M29.456 157.078 C 28.903 157.630,29.189 159.179,29.800 158.945 C 30.130 158.818,30.400 158.384,30.400 157.981 C 30.400 157.182,29.864 156.669,29.456 157.078 M104.621 174.289 C 104.392 174.885,92.198 175.044,91.835 174.456 C 91.650 174.157,93.948 171.063,102.600 159.965 L 104.600 157.400 104.709 165.589 C 104.768 170.093,104.729 174.008,104.621 174.289 M300.672 164.254 C 303.492 167.913,306.394 171.631,307.119 172.515 C 308.927 174.717,308.624 174.837,301.569 174.711 L 295.400 174.600 295.200 166.495 C 295.014 158.954,295.045 157.600,295.405 157.600 C 295.481 157.600,297.851 160.594,300.672 164.254 M28.656 161.078 C 28.121 161.612,28.394 162.777,29.000 162.545 C 29.653 162.294,29.808 161.376,29.256 161.034 C 29.066 160.917,28.796 160.937,28.656 161.078 M27.457 165.640 C 27.073 166.188,26.800 167.363,26.800 168.465 C 26.800 169.503,26.620 170.464,26.400 170.600 C 26.180 170.736,26.000 171.971,26.000 173.344 C 26.000 174.717,25.812 176.028,25.582 176.258 C 25.340 176.500,25.214 178.008,25.282 179.838 L 25.400 183.000 25.905 180.800 C 26.183 179.590,26.497 177.880,26.604 177.000 C 26.710 176.120,26.963 174.500,27.167 173.400 C 27.370 172.300,27.695 170.405,27.889 169.190 C 28.083 167.974,28.377 166.761,28.543 166.493 C 29.199 165.431,28.170 164.622,27.457 165.640 M372.013 166.067 C 372.020 166.360,372.303 166.960,372.641 167.400 C 373.235 168.171,373.253 168.157,373.129 167.031 C 373.003 165.888,371.988 165.011,372.013 166.067 M372.676 170.146 C 372.554 170.464,372.818 171.054,373.263 171.457 C 374.058 172.176,374.069 172.169,373.936 171.025 C 373.787 169.753,373.030 169.224,372.676 170.146 M373.758 175.764 C 373.629 176.103,373.810 176.667,374.161 177.018 C 374.746 177.603,374.800 177.573,374.800 176.652 C 374.800 175.473,374.099 174.876,373.758 175.764 M374.534 182.228 C 374.391 182.601,374.482 183.240,374.737 183.648 C 375.535 184.925,375.376 215.124,374.563 216.753 C 373.920 218.044,374.371 219.512,375.245 218.972 C 375.755 218.657,375.707 182.114,375.197 181.798 C 374.976 181.661,374.677 181.855,374.534 182.228 M25.200 220.896 C 25.200 222.797,25.380 224.464,25.600 224.600 C 25.820 224.736,26.000 225.996,26.000 227.400 C 26.000 228.804,26.180 230.064,26.400 230.200 C 26.620 230.336,26.800 231.129,26.800 231.962 C 26.800 233.859,27.911 236.249,28.513 235.647 C 28.808 235.352,28.794 234.758,28.467 233.666 C 28.210 232.809,28.000 231.464,28.000 230.677 C 28.000 229.891,27.842 229.149,27.649 229.030 C 27.455 228.911,27.198 227.775,27.077 226.506 C 26.293 218.276,25.200 215.010,25.200 220.896 M374.065 223.061 C 373.424 223.756,373.795 225.165,374.447 224.513 C 374.678 224.282,374.807 223.730,374.734 223.286 C 374.618 222.589,374.528 222.559,374.065 223.061 M373.122 228.774 C 372.663 229.215,372.561 229.613,372.806 230.009 C 373.290 230.793,374.118 229.986,373.934 228.908 C 373.810 228.181,373.750 228.171,373.122 228.774 M372.280 233.215 C 371.760 233.714,371.636 234.206,371.835 234.995 C 372.017 235.723,371.930 236.196,371.574 236.416 C 371.276 236.600,371.044 237.422,371.049 238.273 C 371.054 239.113,370.901 239.906,370.709 240.036 C 370.516 240.166,370.302 240.706,370.232 241.236 C 370.163 241.766,370.005 242.470,369.883 242.800 C 369.760 243.130,369.267 244.840,368.788 246.600 C 368.309 248.360,367.781 250.160,367.614 250.600 C 367.447 251.040,367.095 252.120,366.831 253.000 C 366.303 254.761,365.298 257.444,364.796 258.436 C 364.618 258.785,364.641 259.325,364.845 259.636 C 365.303 260.332,366.800 258.757,366.800 257.579 C 366.800 257.177,366.980 256.736,367.200 256.600 C 367.420 256.464,367.600 255.924,367.600 255.400 C 367.600 254.876,367.780 254.336,368.000 254.200 C 368.220 254.064,368.400 253.524,368.400 253.000 C 368.400 252.476,368.580 251.936,368.800 251.800 C 369.020 251.664,369.200 250.944,369.200 250.200 C 369.200 249.456,369.380 248.736,369.600 248.600 C 369.820 248.464,370.000 247.744,370.000 247.000 C 370.000 246.256,370.180 245.536,370.400 245.400 C 370.620 245.264,370.800 244.544,370.800 243.800 C 370.800 243.056,370.980 242.336,371.200 242.200 C 371.420 242.064,371.600 241.344,371.600 240.600 C 371.600 239.856,371.780 239.136,372.000 239.000 C 372.220 238.864,372.400 237.989,372.400 237.056 C 372.400 236.123,372.594 235.166,372.831 234.929 C 373.668 234.092,373.126 232.404,372.280 233.215 M28.400 238.576 C 28.400 239.842,29.048 240.231,29.561 239.272 C 29.840 238.751,29.822 238.382,29.501 238.061 C 28.778 237.338,28.400 237.515,28.400 238.576 M29.200 241.780 C 29.200 242.953,29.750 243.383,30.340 242.672 C 30.660 242.287,30.568 241.980,29.986 241.480 C 29.236 240.838,29.200 240.852,29.200 241.780 M30.071 245.049 C 30.213 246.247,30.978 246.756,31.316 245.876 C 31.433 245.569,31.173 245.012,30.736 244.638 C 29.971 243.983,29.947 243.998,30.071 245.049 M30.871 248.270 C 30.948 248.945,31.239 249.400,31.595 249.400 C 32.537 249.400,32.537 248.101,31.595 247.597 C 30.808 247.176,30.751 247.229,30.871 248.270 M31.668 250.869 C 31.741 251.381,32.055 251.800,32.367 251.800 C 33.296 251.800,33.313 250.889,32.392 250.396 C 31.622 249.984,31.549 250.031,31.668 250.869 M32.400 253.762 C 32.400 254.307,32.580 254.864,32.800 255.000 C 33.020 255.136,33.200 255.676,33.200 256.200 C 33.200 256.724,33.380 257.264,33.600 257.400 C 33.820 257.536,34.000 258.076,34.000 258.600 C 34.000 259.124,34.180 259.664,34.400 259.800 C 34.620 259.936,34.800 260.391,34.800 260.811 C 34.800 261.232,35.160 262.217,35.600 263.000 C 36.040 263.783,36.400 264.683,36.400 265.000 C 36.400 265.317,36.760 266.217,37.200 267.000 C 37.640 267.783,38.000 268.692,38.000 269.020 C 38.000 269.348,38.489 270.377,39.088 271.308 C 40.546 273.577,42.000 276.425,42.000 277.013 C 42.000 277.636,46.291 286.010,47.031 286.831 C 47.344 287.179,47.600 287.587,47.600 287.739 C 47.600 287.891,48.089 288.777,48.687 289.708 C 49.285 290.639,50.101 291.996,50.500 292.724 C 50.900 293.452,51.848 294.892,52.607 295.924 C 53.366 296.956,54.803 298.970,55.800 300.400 C 56.797 301.830,58.238 303.810,59.002 304.800 C 59.767 305.790,60.701 307.050,61.077 307.600 C 64.125 312.053,76.314 325.012,81.870 329.707 C 83.371 330.976,85.519 332.822,86.643 333.809 C 87.767 334.796,89.297 336.047,90.043 336.590 C 90.789 337.133,92.030 338.033,92.800 338.590 C 93.570 339.148,95.010 340.230,96.000 340.996 C 98.115 342.632,103.068 346.000,103.359 346.000 C 103.469 346.000,104.360 346.540,105.338 347.200 C 106.316 347.860,107.256 348.400,107.427 348.400 C 107.597 348.400,108.021 348.654,108.369 348.965 C 108.716 349.276,109.990 350.053,111.200 350.692 C 112.410 351.332,114.117 352.293,114.994 352.827 C 116.902 353.992,119.425 355.385,120.800 356.033 C 121.350 356.292,123.240 357.203,125.000 358.056 C 126.760 358.909,128.420 359.605,128.688 359.603 C 128.956 359.601,129.817 359.960,130.600 360.400 C 131.383 360.840,132.283 361.200,132.600 361.200 C 132.917 361.200,133.817 361.560,134.600 362.000 C 135.383 362.440,136.368 362.800,136.789 362.800 C 137.209 362.800,137.664 362.980,137.800 363.200 C 137.936 363.420,138.476 363.600,139.000 363.600 C 139.524 363.600,140.064 363.780,140.200 364.000 C 140.336 364.220,140.876 364.400,141.400 364.400 C 141.924 364.400,142.464 364.580,142.600 364.800 C 142.736 365.020,143.276 365.200,143.800 365.200 C 144.324 365.200,144.864 365.380,145.000 365.600 C 145.136 365.820,145.676 366.000,146.200 366.000 C 146.724 366.000,147.264 366.180,147.400 366.400 C 147.536 366.620,148.256 366.800,149.000 366.800 C 149.744 366.800,150.464 366.980,150.600 367.200 C 150.736 367.420,151.347 367.600,151.957 367.600 C 153.395 367.600,153.454 366.472,152.033 366.140 C 150.789 365.850,138.133 361.712,137.000 361.225 C 134.152 360.002,133.064 359.544,130.238 358.378 C 115.276 352.206,96.915 340.629,84.018 329.235 C 73.543 319.980,60.474 305.366,55.792 297.671 C 55.567 297.302,54.127 295.106,52.592 292.790 C 51.056 290.475,49.413 287.865,48.940 286.990 C 46.949 283.309,46.293 282.168,45.842 281.600 C 45.580 281.270,45.172 280.550,44.936 280.000 C 43.845 277.457,43.359 276.568,42.839 276.161 C 42.530 275.919,42.394 275.533,42.537 275.303 C 42.679 275.072,42.529 274.782,42.204 274.657 C 41.870 274.529,41.716 274.164,41.848 273.819 C 41.985 273.462,41.817 273.105,41.444 272.961 C 41.092 272.827,40.889 272.580,40.992 272.412 C 41.096 272.245,40.848 271.409,40.443 270.554 C 39.452 268.466,38.232 265.647,37.173 263.000 C 36.997 262.560,36.622 261.480,36.340 260.600 C 36.058 259.720,35.596 258.645,35.313 258.211 C 35.031 257.777,34.800 257.124,34.800 256.760 C 34.800 256.396,34.549 255.889,34.241 255.634 C 33.934 255.379,33.771 254.833,33.879 254.420 C 34.006 253.932,33.781 253.511,33.238 253.220 C 32.492 252.821,32.400 252.881,32.400 253.762 M364.317 260.834 C 363.926 261.056,363.733 261.482,363.867 261.830 C 363.998 262.172,363.787 262.668,363.385 262.961 C 362.973 263.263,362.771 263.749,362.910 264.109 C 363.046 264.465,362.902 264.829,362.575 264.954 C 362.259 265.076,362.000 265.453,362.000 265.793 C 362.000 266.133,361.820 266.768,361.600 267.205 C 361.380 267.642,361.014 268.367,360.786 268.816 C 360.559 269.265,360.467 269.785,360.582 269.971 C 360.697 270.157,360.539 270.519,360.230 270.775 C 359.921 271.032,358.181 274.247,356.363 277.921 C 354.546 281.594,352.947 284.690,352.811 284.800 C 352.339 285.182,350.769 288.102,350.942 288.275 C 351.038 288.371,350.701 288.897,350.195 289.444 C 349.688 289.990,348.977 291.014,348.615 291.719 C 348.254 292.424,347.422 293.720,346.767 294.600 C 346.111 295.480,345.273 296.650,344.904 297.200 C 327.699 322.807,295.824 348.743,269.200 358.799 C 268.430 359.090,267.629 359.479,267.420 359.664 C 267.211 359.849,266.804 360.000,266.516 360.000 C 266.227 360.000,265.228 360.347,264.296 360.770 C 262.571 361.554,257.025 363.531,253.400 364.654 C 252.300 364.995,251.087 365.437,250.705 365.637 C 250.323 365.837,249.657 366.000,249.224 366.000 C 248.792 366.000,248.024 366.168,247.519 366.372 C 247.013 366.577,246.105 366.851,245.500 366.980 C 243.967 367.308,244.054 368.400,245.613 368.400 C 246.279 368.400,246.915 368.167,247.024 367.882 C 247.150 367.552,247.712 367.420,248.564 367.520 C 249.302 367.606,250.027 367.479,250.176 367.238 C 250.325 366.997,250.876 366.800,251.400 366.800 C 251.924 366.800,252.464 366.620,252.600 366.400 C 252.736 366.180,253.276 366.000,253.800 366.000 C 254.324 366.000,254.864 365.820,255.000 365.600 C 255.136 365.380,255.856 365.200,256.600 365.200 C 257.344 365.200,258.064 365.020,258.200 364.800 C 258.336 364.580,258.876 364.400,259.400 364.400 C 259.924 364.400,260.464 364.220,260.600 364.000 C 260.736 363.780,261.191 363.600,261.611 363.600 C 262.032 363.600,263.017 363.240,263.800 362.800 C 264.583 362.360,265.483 362.000,265.800 362.000 C 266.117 362.000,267.017 361.640,267.800 361.200 C 268.583 360.760,269.483 360.400,269.800 360.400 C 270.117 360.400,271.017 360.040,271.800 359.600 C 272.583 359.160,273.468 358.800,273.766 358.800 C 274.356 358.800,281.025 355.434,282.000 354.644 C 282.330 354.377,283.500 353.723,284.600 353.191 C 285.700 352.660,287.320 351.776,288.200 351.229 C 289.080 350.681,290.790 349.714,292.000 349.081 C 293.210 348.448,294.484 347.676,294.831 347.365 C 295.179 347.054,295.597 346.800,295.760 346.800 C 296.126 346.800,303.141 342.091,305.600 340.195 C 306.590 339.432,307.850 338.500,308.400 338.124 C 308.950 337.749,310.340 336.622,311.490 335.621 C 312.639 334.619,314.684 332.900,316.034 331.800 C 320.637 328.048,335.268 313.086,337.276 310.076 C 337.671 309.484,338.624 308.190,339.395 307.200 C 340.166 306.210,341.248 304.770,341.800 304.000 C 342.352 303.230,343.430 301.790,344.196 300.800 C 345.832 298.685,349.200 293.732,349.200 293.441 C 349.200 293.331,349.740 292.440,350.400 291.462 C 351.060 290.484,351.600 289.584,351.600 289.462 C 351.600 289.340,352.140 288.440,352.800 287.462 C 353.460 286.484,354.000 285.544,354.000 285.373 C 354.000 285.203,354.262 284.774,354.581 284.421 C 355.332 283.591,361.200 272.025,361.200 271.375 C 361.200 271.104,361.740 269.855,362.400 268.600 C 363.060 267.345,363.600 265.988,363.600 265.583 C 363.600 265.178,363.780 264.736,364.000 264.600 C 364.220 264.464,364.400 263.949,364.400 263.456 C 364.400 262.963,364.597 262.363,364.838 262.122 C 365.550 261.410,365.131 260.373,364.317 260.834 M153.814 367.177 C 153.400 367.848,153.959 368.400,155.053 368.400 C 155.795 368.400,156.024 368.216,155.925 367.700 C 155.775 366.913,154.216 366.527,153.814 367.177 M157.000 368.000 C 156.579 368.681,157.194 369.200,158.424 369.200 C 159.578 369.200,159.870 368.545,159.000 367.906 C 158.422 367.481,157.288 367.534,157.000 368.000 M241.200 367.990 C 240.870 368.209,240.026 368.391,239.324 368.394 C 238.622 368.397,237.936 368.580,237.800 368.800 C 237.664 369.020,236.764 369.200,235.800 369.200 C 234.836 369.200,233.936 369.380,233.800 369.600 C 233.664 369.820,232.699 370.000,231.656 370.000 C 230.613 370.000,229.589 370.165,229.380 370.366 C 229.171 370.568,227.920 370.832,226.600 370.954 C 225.280 371.076,222.542 371.324,220.516 371.506 C 216.726 371.845,216.129 372.037,216.584 372.773 C 216.922 373.320,224.263 373.345,224.600 372.800 C 224.736 372.580,225.996 372.400,227.400 372.400 C 228.804 372.400,230.064 372.220,230.200 372.000 C 230.336 371.780,231.416 371.600,232.600 371.600 C 233.784 371.600,234.864 371.420,235.000 371.200 C 235.136 370.980,235.929 370.800,236.762 370.800 C 238.226 370.800,240.800 369.825,240.800 369.271 C 240.800 369.122,241.475 369.000,242.300 369.000 C 243.367 369.000,243.800 368.827,243.800 368.400 C 243.800 367.688,242.068 367.415,241.200 367.990 M160.267 368.667 C 159.434 369.500,161.732 370.800,164.038 370.800 C 164.871 370.800,165.664 370.980,165.800 371.200 C 165.936 371.420,166.836 371.600,167.800 371.600 C 168.764 371.600,169.664 371.780,169.800 372.000 C 169.936 372.220,171.196 372.400,172.600 372.400 C 174.004 372.400,175.264 372.580,175.400 372.800 C 175.833 373.501,183.600 373.312,183.600 372.600 C 183.600 371.871,184.044 371.997,180.000 371.576 C 178.130 371.381,175.340 371.031,173.800 370.797 C 172.260 370.563,170.100 370.272,169.000 370.149 C 167.900 370.027,166.829 369.763,166.620 369.563 C 166.411 369.363,165.477 369.200,164.544 369.200 C 163.611 369.200,162.736 369.020,162.600 368.800 C 162.322 368.351,160.677 368.257,160.267 368.667 " stroke="none" fill="#090624" fill-rule="evenodd"></path><path id="path4" d="M183.590 27.332 C 183.034 27.622,182.314 27.777,181.990 27.675 C 181.665 27.574,181.513 27.613,181.651 27.763 C 181.965 28.104,218.786 28.147,219.127 27.807 C 219.264 27.670,219.099 27.664,218.762 27.793 C 218.424 27.923,217.619 27.754,216.974 27.417 C 215.354 26.573,185.192 26.496,183.590 27.332 M176.600 28.000 C 176.464 28.220,175.291 28.400,173.992 28.400 C 172.541 28.400,171.440 28.605,171.133 28.933 C 170.804 29.286,170.013 29.407,168.802 29.291 C 167.477 29.163,166.828 29.284,166.460 29.728 C 166.097 30.165,165.538 30.275,164.515 30.109 C 163.418 29.931,162.958 30.043,162.560 30.586 C 162.200 31.080,161.744 31.222,161.069 31.053 C 160.410 30.888,159.759 31.075,159.050 31.632 C 158.396 32.147,157.710 32.362,157.220 32.206 C 156.782 32.067,156.013 32.235,155.475 32.588 C 154.946 32.935,154.211 33.102,153.841 32.961 C 153.454 32.812,152.851 32.992,152.414 33.388 C 151.961 33.797,151.347 33.974,150.885 33.827 C 150.426 33.681,149.910 33.827,149.611 34.187 C 149.308 34.552,148.758 34.704,148.225 34.570 C 147.683 34.435,147.139 34.591,146.821 34.974 C 146.536 35.318,145.885 35.600,145.375 35.600 C 144.865 35.600,144.336 35.780,144.200 36.000 C 144.064 36.220,143.601 36.400,143.171 36.400 C 142.741 36.400,142.077 36.562,141.695 36.759 C 140.026 37.621,137.698 38.434,136.458 38.587 C 135.720 38.678,134.820 39.018,134.458 39.342 C 134.096 39.667,133.111 40.060,132.268 40.217 C 131.426 40.373,130.641 40.748,130.525 41.051 C 130.409 41.353,129.884 41.600,129.357 41.600 C 128.831 41.600,128.400 41.780,128.400 42.000 C 128.400 42.220,127.950 42.400,127.400 42.400 C 126.850 42.400,126.400 42.574,126.400 42.787 C 126.400 43.001,126.132 43.072,125.803 42.946 C 125.463 42.815,125.101 42.992,124.961 43.358 C 124.825 43.711,124.374 44.000,123.957 44.000 C 123.541 44.000,123.200 44.180,123.200 44.400 C 123.200 44.620,122.917 44.800,122.571 44.800 C 122.226 44.800,121.671 45.072,121.339 45.404 C 121.007 45.736,120.570 45.905,120.368 45.780 C 120.165 45.655,120.000 45.734,120.000 45.956 C 120.000 46.178,118.875 46.911,117.500 47.585 C 116.125 48.259,114.280 49.245,113.400 49.775 C 112.520 50.306,110.855 51.233,109.700 51.836 C 108.545 52.438,107.600 53.037,107.600 53.168 C 107.600 53.298,107.015 53.664,106.300 53.980 C 105.585 54.297,104.661 54.871,104.246 55.258 C 103.831 55.644,102.911 56.236,102.201 56.573 C 101.491 56.910,100.683 57.459,100.406 57.793 C 100.129 58.127,99.648 58.400,99.338 58.400 C 99.029 58.400,98.680 58.647,98.564 58.950 C 98.448 59.252,97.710 59.837,96.924 60.250 C 96.137 60.662,95.012 61.450,94.424 62.000 C 93.835 62.550,92.988 63.288,92.541 63.641 C 92.095 63.993,90.305 65.403,88.565 66.774 C 82.676 71.412,69.694 84.015,66.614 88.083 C 65.830 89.119,64.961 90.109,64.682 90.283 C 64.403 90.457,63.551 91.518,62.788 92.640 C 60.362 96.206,56.518 100.784,56.199 100.487 C 56.029 100.329,55.976 100.470,56.081 100.800 C 56.241 101.306,54.091 104.967,53.262 105.600 C 53.118 105.710,52.562 106.610,52.027 107.600 C 51.130 109.261,49.675 111.525,49.200 112.000 C 49.090 112.110,48.944 112.470,48.876 112.800 C 48.807 113.130,48.312 114.071,47.776 114.891 C 47.239 115.712,46.800 116.547,46.800 116.749 C 46.800 116.950,46.519 117.222,46.175 117.354 C 45.831 117.486,45.662 117.777,45.800 118.000 C 45.938 118.223,45.769 118.514,45.425 118.646 C 45.081 118.778,44.800 119.226,44.800 119.643 C 44.800 120.059,44.620 120.400,44.400 120.400 C 44.180 120.400,44.000 120.850,44.000 121.400 C 44.000 121.950,43.865 122.401,43.700 122.403 C 43.341 122.407,42.400 124.344,42.400 125.080 C 42.400 125.366,42.220 125.600,42.000 125.600 C 41.780 125.600,41.600 125.960,41.600 126.400 C 41.600 126.840,41.464 127.200,41.298 127.200 C 41.132 127.200,40.793 127.785,40.545 128.500 C 39.993 130.090,37.257 136.736,36.760 137.695 C 36.562 138.077,36.400 138.640,36.400 138.946 C 36.400 139.252,36.122 139.733,35.782 140.015 C 35.442 140.297,35.254 140.764,35.365 141.053 C 35.475 141.341,35.304 141.839,34.983 142.160 C 34.662 142.481,34.400 143.094,34.400 143.522 C 34.400 143.951,34.149 144.511,33.841 144.766 C 33.534 145.021,33.367 145.550,33.469 145.943 C 33.572 146.335,33.377 146.887,33.036 147.170 C 32.579 147.550,32.520 147.878,32.813 148.425 C 33.127 149.011,33.032 149.262,32.359 149.622 C 31.671 149.990,31.549 150.332,31.724 151.408 C 31.875 152.337,31.770 152.803,31.377 152.954 C 30.991 153.102,30.887 153.534,31.045 154.327 C 31.216 155.179,31.103 155.551,30.619 155.737 C 30.112 155.932,30.020 156.299,30.215 157.339 C 30.413 158.395,30.320 158.745,29.784 158.951 C 29.236 159.161,29.149 159.523,29.348 160.765 C 29.538 161.956,29.452 162.371,28.978 162.553 C 28.530 162.725,28.371 163.318,28.401 164.695 C 28.424 165.743,28.239 167.680,27.990 169.000 C 26.983 174.329,26.788 175.475,26.591 177.200 C 26.478 178.190,26.118 180.050,25.793 181.332 C 24.988 184.498,24.988 185.870,25.790 185.067 C 26.432 184.425,27.415 179.071,27.011 178.418 C 26.875 178.197,26.970 177.629,27.224 177.155 C 27.478 176.681,27.734 175.373,27.794 174.247 C 27.854 173.121,28.109 171.682,28.360 171.050 C 28.612 170.417,28.824 169.337,28.832 168.650 C 28.863 165.742,29.019 164.186,29.298 163.978 C 29.461 163.856,29.755 162.956,29.951 161.978 C 30.148 161.000,30.611 159.120,30.982 157.800 C 31.353 156.480,31.923 154.320,32.248 153.000 C 32.574 151.680,33.011 150.287,33.220 149.905 C 33.429 149.523,33.600 148.758,33.600 148.205 C 33.600 147.652,33.780 147.200,34.000 147.200 C 34.220 147.200,34.400 146.748,34.400 146.195 C 34.400 145.642,34.569 144.877,34.775 144.495 C 34.981 144.113,35.643 142.450,36.247 140.800 C 36.851 139.150,37.492 137.629,37.672 137.420 C 37.853 137.211,38.000 136.804,38.000 136.516 C 38.000 136.227,38.378 135.138,38.840 134.096 C 39.302 133.053,39.831 131.840,40.017 131.400 C 40.725 129.718,46.604 117.790,46.819 117.600 C 46.943 117.490,47.729 116.140,48.566 114.600 C 49.403 113.060,50.607 111.026,51.244 110.080 C 51.880 109.134,52.400 108.278,52.400 108.178 C 52.400 108.078,53.185 106.872,54.145 105.498 C 55.105 104.124,56.322 102.370,56.849 101.600 C 57.376 100.830,58.616 99.142,59.604 97.850 C 60.592 96.557,61.760 95.012,62.200 94.417 C 63.750 92.320,66.598 88.960,70.013 85.200 C 71.911 83.110,74.080 80.713,74.832 79.874 C 84.825 68.725,105.179 54.146,123.200 45.228 C 125.950 43.867,128.513 42.584,128.895 42.377 C 129.277 42.170,129.867 42.000,130.207 42.000 C 130.547 42.000,130.928 41.731,131.054 41.402 C 131.181 41.074,131.426 40.892,131.599 41.000 C 131.998 41.246,134.660 40.151,135.000 39.600 C 135.141 39.373,135.440 39.301,135.666 39.441 C 135.892 39.580,136.464 39.502,136.938 39.267 C 137.412 39.032,138.610 38.574,139.600 38.249 C 140.590 37.924,143.470 36.951,146.000 36.086 C 150.388 34.586,151.476 34.260,155.600 33.206 C 156.590 32.953,157.953 32.578,158.628 32.373 C 159.304 32.168,160.191 32.000,160.600 32.000 C 161.009 32.000,161.896 31.827,162.572 31.616 C 163.247 31.405,164.925 31.008,166.300 30.734 C 167.675 30.459,168.801 30.137,168.802 30.017 C 168.804 29.898,169.635 29.777,170.649 29.748 C 171.664 29.719,172.634 29.468,172.806 29.190 C 173.020 28.845,173.670 28.758,174.853 28.916 C 175.946 29.063,177.033 28.945,177.793 28.598 C 178.457 28.294,179.450 27.970,180.000 27.878 C 180.550 27.785,180.066 27.684,178.924 27.654 C 177.782 27.625,176.736 27.780,176.600 28.000 M220.400 27.878 C 220.950 27.970,221.975 28.310,222.678 28.631 C 223.487 29.002,224.514 29.128,225.478 28.976 C 226.494 28.816,227.399 28.945,228.200 29.366 C 228.860 29.712,229.813 29.996,230.318 29.998 C 230.823 29.999,232.443 30.281,233.918 30.625 C 235.393 30.969,237.410 31.430,238.400 31.650 C 241.222 32.278,245.124 33.242,248.000 34.023 C 250.063 34.583,257.805 37.092,259.000 37.587 C 259.440 37.770,260.430 38.136,261.200 38.400 C 262.666 38.903,263.457 39.201,265.330 39.955 C 265.951 40.205,266.626 40.307,266.830 40.181 C 267.033 40.056,267.200 40.109,267.200 40.299 C 267.200 40.490,267.965 40.961,268.900 41.346 C 279.133 45.557,294.878 54.564,304.600 61.768 C 310.537 66.167,322.274 76.261,325.000 79.312 C 325.440 79.805,327.780 82.371,330.200 85.014 C 332.620 87.657,335.410 90.876,336.400 92.165 C 337.390 93.455,338.661 95.071,339.225 95.755 C 340.847 97.725,348.000 107.849,348.000 108.176 C 348.000 108.277,348.520 109.134,349.156 110.080 C 349.793 111.026,350.997 113.060,351.834 114.600 C 352.671 116.140,353.457 117.490,353.581 117.600 C 353.796 117.790,359.675 129.718,360.383 131.400 C 360.569 131.840,361.080 133.015,361.520 134.010 C 361.960 135.006,362.974 137.616,363.774 139.810 C 364.574 142.005,365.403 144.113,365.615 144.495 C 365.827 144.877,366.000 145.631,366.000 146.171 C 366.000 146.711,366.180 147.264,366.400 147.400 C 366.620 147.536,366.800 148.076,366.800 148.600 C 366.800 149.124,366.960 149.652,367.156 149.773 C 367.351 149.894,367.605 150.579,367.719 151.296 C 367.832 152.013,368.106 153.230,368.327 154.000 C 369.170 156.940,370.310 161.495,370.781 163.800 C 371.050 165.120,371.435 166.513,371.635 166.895 C 371.836 167.277,372.000 168.492,372.000 169.595 C 372.000 170.698,372.180 171.600,372.400 171.600 C 372.625 171.600,372.800 172.725,372.800 174.176 C 372.800 175.593,372.956 176.849,373.146 176.967 C 374.020 177.507,374.412 199.626,373.655 205.648 C 373.414 207.568,371.166 209.433,370.226 208.493 C 370.029 208.296,367.010 207.920,366.200 207.991 C 365.081 208.090,359.957 208.054,358.233 207.935 C 356.909 207.844,356.212 207.964,356.099 208.302 C 356.007 208.579,355.762 208.700,355.555 208.572 C 355.215 208.362,351.085 207.987,349.600 208.031 C 349.270 208.041,347.335 208.061,345.300 208.076 C 343.265 208.090,341.600 208.254,341.600 208.438 C 341.600 211.277,333.778 201.316,207.034 37.082 C 203.333 32.288,200.109 28.430,199.868 28.511 C 199.628 28.591,196.175 32.874,192.196 38.028 C 108.459 146.500,75.690 188.767,67.430 198.959 C 64.773 202.236,62.030 205.679,61.333 206.609 C 60.178 208.149,57.600 209.353,57.600 208.353 C 57.600 208.183,54.270 208.119,50.200 208.209 C 43.886 208.350,42.800 208.288,42.800 207.787 C 42.800 207.014,41.820 207.037,41.029 207.828 C 40.683 208.174,39.815 208.436,39.100 208.411 C 38.385 208.385,36.135 208.327,34.100 208.282 C 32.065 208.237,30.400 208.076,30.400 207.924 C 30.400 207.540,28.741 207.730,27.932 208.207 C 27.190 208.643,26.065 211.541,25.915 213.400 C 25.862 214.060,25.720 209.200,25.600 202.600 L 25.382 190.600 25.291 204.020 C 25.233 212.581,25.345 217.585,25.601 217.841 C 25.980 218.220,26.591 221.749,27.050 226.200 C 27.163 227.300,27.410 228.560,27.599 229.000 C 28.067 230.092,28.505 233.423,28.462 235.572 C 28.436 236.907,28.622 237.480,29.215 237.896 C 29.829 238.325,29.914 238.613,29.601 239.197 C 29.024 240.276,29.096 240.672,30.030 241.542 C 30.561 242.037,30.705 242.411,30.430 242.581 C 29.764 242.993,29.921 243.940,30.777 244.673 C 31.396 245.203,31.467 245.500,31.130 246.132 C 30.782 246.782,30.876 247.055,31.653 247.645 C 32.458 248.257,32.528 248.482,32.119 249.146 C 31.712 249.808,31.772 250.017,32.514 250.509 C 33.290 251.025,33.324 251.169,32.814 251.783 C 32.304 252.398,32.345 252.555,33.182 253.187 C 33.762 253.624,34.033 254.137,33.886 254.520 C 33.755 254.862,33.907 255.357,34.224 255.620 C 34.541 255.883,34.800 256.396,34.800 256.760 C 34.800 257.124,35.031 257.777,35.313 258.211 C 35.596 258.645,36.058 259.720,36.340 260.600 C 36.622 261.480,37.021 262.605,37.226 263.100 C 37.432 263.595,37.762 264.405,37.959 264.900 C 38.543 266.362,39.652 268.888,40.443 270.554 C 40.848 271.409,41.096 272.245,40.992 272.412 C 40.889 272.580,41.092 272.827,41.444 272.961 C 41.817 273.105,41.985 273.462,41.848 273.819 C 41.716 274.164,41.870 274.529,42.204 274.657 C 42.529 274.782,42.679 275.072,42.537 275.303 C 42.394 275.533,42.530 275.919,42.839 276.161 C 43.363 276.571,43.660 277.114,44.883 279.900 C 45.148 280.505,45.580 281.270,45.842 281.600 C 46.293 282.168,46.949 283.309,48.940 286.990 C 49.413 287.865,51.056 290.475,52.592 292.790 C 54.127 295.106,55.567 297.302,55.792 297.671 C 64.082 311.296,84.192 331.061,101.600 342.695 C 110.767 348.821,122.052 355.001,130.238 358.378 C 133.064 359.544,134.152 360.002,137.000 361.225 C 138.168 361.727,150.805 365.853,152.116 366.161 C 152.730 366.305,153.132 366.586,153.010 366.784 C 152.887 366.982,152.957 367.250,153.166 367.379 C 153.374 367.508,153.658 367.430,153.796 367.207 C 154.239 366.489,155.664 366.758,155.884 367.600 C 156.121 368.508,156.440 368.600,157.091 367.949 C 157.610 367.430,159.751 367.832,159.410 368.384 C 159.287 368.582,159.357 368.850,159.566 368.979 C 159.774 369.108,160.058 369.030,160.196 368.807 C 160.520 368.283,162.277 368.278,162.600 368.800 C 162.736 369.020,163.611 369.200,164.544 369.200 C 165.477 369.200,166.411 369.363,166.620 369.563 C 166.829 369.763,167.900 370.027,169.000 370.149 C 170.100 370.272,172.260 370.563,173.800 370.797 C 175.340 371.031,178.130 371.381,180.000 371.576 C 184.044 371.997,183.600 371.871,183.600 372.600 C 183.600 373.124,185.710 373.200,200.187 373.200 C 214.768 373.200,216.747 373.127,216.545 372.600 C 216.418 372.270,216.379 371.983,216.457 371.962 C 216.617 371.920,222.904 371.295,226.600 370.954 C 227.920 370.832,229.171 370.568,229.380 370.366 C 229.589 370.165,230.613 370.000,231.656 370.000 C 232.699 370.000,233.664 369.820,233.800 369.600 C 233.936 369.380,234.836 369.200,235.800 369.200 C 236.764 369.200,237.664 369.020,237.800 368.800 C 237.936 368.580,238.519 368.400,239.095 368.400 C 239.672 368.400,240.748 368.181,241.488 367.914 C 242.545 367.532,243.000 367.532,243.616 367.917 C 244.263 368.321,244.400 368.303,244.400 367.811 C 244.400 367.483,244.895 367.109,245.500 366.980 C 246.105 366.851,247.013 366.577,247.519 366.372 C 248.024 366.168,248.792 366.000,249.224 366.000 C 249.657 366.000,250.323 365.837,250.705 365.637 C 251.087 365.437,252.300 364.995,253.400 364.654 C 257.025 363.531,262.571 361.554,264.296 360.770 C 265.228 360.347,266.227 360.000,266.516 360.000 C 266.804 360.000,267.211 359.849,267.420 359.664 C 267.629 359.479,268.430 359.090,269.200 358.799 C 295.824 348.743,327.699 322.807,344.904 297.200 C 345.273 296.650,346.111 295.480,346.767 294.600 C 347.422 293.720,348.254 292.424,348.615 291.719 C 348.977 291.014,349.688 289.990,350.195 289.444 C 350.701 288.897,351.038 288.371,350.942 288.275 C 350.769 288.102,352.339 285.182,352.811 284.800 C 352.947 284.690,354.546 281.594,356.363 277.921 C 358.181 274.247,359.921 271.032,360.230 270.775 C 360.539 270.519,360.697 270.157,360.582 269.971 C 360.467 269.785,360.559 269.265,360.786 268.816 C 361.014 268.367,361.380 267.642,361.600 267.205 C 361.820 266.768,362.000 266.133,362.000 265.793 C 362.000 265.453,362.259 265.076,362.575 264.954 C 362.902 264.829,363.046 264.465,362.910 264.109 C 362.771 263.749,362.973 263.263,363.385 262.961 C 363.790 262.665,363.998 262.172,363.865 261.825 C 363.722 261.453,363.940 261.046,364.420 260.789 C 365.033 260.461,365.123 260.203,364.819 259.636 C 364.604 259.234,364.545 258.788,364.688 258.645 C 364.984 258.349,365.744 256.329,366.661 253.400 C 367.005 252.300,367.429 251.040,367.602 250.600 C 367.776 250.160,368.309 248.360,368.788 246.600 C 369.267 244.840,369.760 243.130,369.883 242.800 C 370.005 242.470,370.163 241.766,370.232 241.236 C 370.302 240.706,370.516 240.166,370.709 240.036 C 370.901 239.906,371.054 239.113,371.049 238.273 C 371.044 237.422,371.276 236.600,371.574 236.416 C 371.931 236.195,372.017 235.723,371.834 234.992 C 371.626 234.166,371.761 233.710,372.380 233.133 C 373.248 232.324,373.434 230.990,372.815 230.010 C 372.550 229.592,372.683 229.196,373.271 228.648 C 373.977 227.991,374.070 227.543,373.897 225.638 C 373.752 224.035,373.851 223.254,374.247 222.884 C 374.909 222.267,374.985 219.145,374.354 218.514 C 374.026 218.186,374.078 217.725,374.554 216.772 C 375.293 215.290,375.555 184.266,374.831 183.819 C 374.627 183.693,374.561 182.285,374.684 180.661 C 374.859 178.349,374.778 177.611,374.300 177.165 C 373.848 176.743,373.745 176.044,373.892 174.400 C 374.060 172.539,373.964 172.086,373.271 171.462 C 372.580 170.838,372.522 170.569,372.903 169.735 C 373.258 168.955,373.220 168.477,372.726 167.473 C 372.381 166.773,372.076 165.668,372.047 165.018 C 372.019 164.367,371.816 163.656,371.598 163.438 C 371.379 163.219,371.194 162.401,371.187 161.620 C 371.180 160.839,370.909 159.849,370.585 159.421 C 370.261 158.993,370.097 158.326,370.219 157.939 C 370.342 157.553,370.159 156.804,369.812 156.275 C 369.465 155.746,369.293 155.022,369.430 154.667 C 369.566 154.311,369.391 153.734,369.039 153.382 C 368.687 153.030,368.400 152.399,368.400 151.980 C 368.400 151.312,368.042 150.186,366.818 147.000 C 365.952 144.745,365.611 143.238,365.834 142.655 C 365.987 142.257,365.835 141.912,365.442 141.761 C 365.089 141.625,364.800 141.094,364.800 140.581 C 364.800 140.067,364.620 139.536,364.400 139.400 C 364.180 139.264,364.000 138.713,364.000 138.176 C 364.000 137.639,363.808 137.200,363.573 137.200 C 363.328 137.200,363.254 136.859,363.401 136.398 C 363.570 135.865,363.445 135.515,363.028 135.355 C 362.682 135.223,362.400 134.684,362.400 134.157 C 362.400 133.631,362.199 133.200,361.953 133.200 C 361.703 133.200,361.599 132.847,361.717 132.395 C 361.858 131.855,361.666 131.449,361.133 131.164 C 360.696 130.930,360.431 130.496,360.545 130.199 C 360.659 129.902,360.489 129.440,360.167 129.172 C 359.844 128.905,359.665 128.602,359.768 128.499 C 359.870 128.396,359.542 127.657,359.038 126.856 C 358.534 126.055,357.002 123.240,355.633 120.600 C 354.264 117.960,352.714 115.080,352.189 114.200 C 351.664 113.320,351.227 112.285,351.217 111.900 C 351.208 111.515,351.016 111.200,350.791 111.200 C 350.567 111.200,350.164 110.705,349.896 110.100 C 349.629 109.495,349.138 108.790,348.806 108.533 C 348.473 108.276,348.330 107.937,348.487 107.780 C 348.644 107.622,348.329 107.145,347.786 106.718 C 347.244 106.291,346.800 105.713,346.800 105.433 C 346.800 105.153,346.440 104.598,346.000 104.200 C 345.560 103.802,345.200 103.329,345.200 103.150 C 345.200 102.694,336.821 91.578,334.578 89.059 C 334.215 88.652,333.012 87.302,331.904 86.059 C 330.797 84.817,328.205 82.072,326.145 79.959 C 324.085 77.846,322.392 75.956,322.382 75.759 C 322.372 75.562,321.168 74.500,319.706 73.400 C 318.245 72.300,315.850 70.320,314.385 69.000 C 312.920 67.680,310.704 65.808,309.460 64.840 C 308.217 63.872,307.200 62.927,307.200 62.740 C 307.200 62.553,306.970 62.400,306.689 62.400 C 306.408 62.400,305.587 61.860,304.864 61.200 C 304.142 60.540,303.410 60.000,303.239 60.000 C 302.911 60.000,301.518 58.913,299.587 57.149 C 298.954 56.571,298.336 56.198,298.213 56.320 C 298.090 56.443,297.460 56.151,296.811 55.672 C 296.163 55.192,295.523 54.800,295.390 54.800 C 295.256 54.800,294.557 54.350,293.836 53.800 C 293.114 53.250,292.378 52.800,292.200 52.800 C 292.022 52.800,291.319 52.390,290.638 51.889 C 289.957 51.389,288.725 50.628,287.900 50.199 C 287.075 49.769,286.400 49.279,286.400 49.109 C 286.400 48.939,286.136 48.800,285.812 48.800 C 284.994 48.800,282.000 47.198,282.000 46.760 C 282.000 46.562,281.640 46.400,281.200 46.400 C 280.760 46.400,280.400 46.220,280.400 46.000 C 280.400 45.780,280.040 45.600,279.600 45.600 C 279.160 45.600,278.800 45.420,278.800 45.200 C 278.800 44.980,278.440 44.800,278.000 44.800 C 277.560 44.800,277.200 44.620,277.200 44.400 C 277.200 44.180,276.840 44.000,276.400 44.000 C 275.960 44.000,275.600 43.820,275.600 43.600 C 275.600 43.380,275.251 43.200,274.824 43.200 C 274.397 43.200,273.936 43.020,273.800 42.800 C 273.664 42.580,273.268 42.400,272.920 42.400 C 272.573 42.400,272.088 42.126,271.843 41.791 C 271.598 41.456,270.678 41.069,269.799 40.930 C 268.919 40.792,268.065 40.452,267.900 40.174 C 267.735 39.897,266.835 39.544,265.900 39.390 C 264.965 39.236,264.020 38.977,263.800 38.814 C 263.580 38.651,262.410 38.186,261.200 37.779 C 259.990 37.372,258.829 36.895,258.620 36.719 C 258.411 36.544,257.837 36.400,257.344 36.400 C 256.851 36.400,256.336 36.220,256.200 36.000 C 256.064 35.780,255.524 35.600,255.000 35.600 C 254.476 35.600,253.936 35.420,253.800 35.200 C 253.664 34.980,253.045 34.800,252.425 34.800 C 251.805 34.800,251.064 34.518,250.779 34.174 C 250.461 33.791,249.917 33.635,249.375 33.770 C 248.846 33.903,248.293 33.753,247.997 33.396 C 247.725 33.068,246.909 32.800,246.184 32.800 C 245.460 32.800,244.797 32.592,244.712 32.337 C 244.627 32.082,243.959 31.891,243.226 31.912 C 242.494 31.932,241.468 31.670,240.947 31.328 C 240.425 30.987,239.615 30.807,239.147 30.930 C 238.655 31.058,238.041 30.898,237.693 30.550 C 237.355 30.212,236.544 29.993,235.845 30.049 C 235.160 30.105,234.171 29.918,233.647 29.633 C 233.065 29.317,232.107 29.209,231.189 29.355 C 230.017 29.543,229.629 29.452,229.434 28.944 C 229.226 28.403,228.745 28.327,226.616 28.498 C 224.658 28.655,223.999 28.573,223.837 28.152 C 223.690 27.769,222.979 27.617,221.513 27.654 C 220.351 27.684,219.850 27.785,220.400 27.878 M213.493 46.300 C 228.246 65.460,253.164 97.795,270.595 120.400 C 276.956 128.650,287.435 142.240,293.881 150.600 C 300.327 158.960,311.016 172.820,317.634 181.400 C 324.252 189.980,333.171 201.546,337.453 207.103 L 345.240 217.207 345.485 254.831 L 345.730 292.455 322.868 315.328 L 300.006 338.200 263.329 338.306 L 226.651 338.412 213.320 325.120 L 199.988 311.828 186.680 325.114 L 173.372 338.400 136.790 338.400 L 100.208 338.400 77.304 315.496 L 54.400 292.592 54.440 255.596 C 54.462 235.248,54.597 218.198,54.740 217.707 C 54.883 217.216,57.816 213.166,61.258 208.707 C 80.871 183.301,86.298 176.267,91.587 169.400 C 94.807 165.220,102.299 155.500,108.237 147.800 C 114.174 140.100,124.237 127.050,130.598 118.800 C 136.960 110.550,149.379 94.440,158.196 83.000 C 167.013 71.560,179.950 54.775,186.945 45.700 C 193.940 36.625,199.812 29.200,199.994 29.200 C 200.176 29.200,206.251 36.895,213.493 46.300 M217.795 119.800 C 217.795 154.560,217.842 168.721,217.900 151.269 C 217.958 133.816,217.958 105.376,217.900 88.069 C 217.842 70.761,217.795 85.040,217.795 119.800 M182.195 120.200 C 182.195 154.960,182.242 169.121,182.300 151.669 C 182.358 134.216,182.358 105.776,182.300 88.469 C 182.242 71.161,182.195 85.440,182.195 120.200 M178.235 61.422 C 177.459 62.198,167.583 75.009,166.664 76.432 C 166.048 77.385,166.005 82.179,166.099 139.432 L 166.200 201.400 199.775 201.502 C 226.370 201.583,233.416 201.500,233.669 201.102 C 233.844 200.826,233.991 172.846,233.994 138.924 L 234.000 77.248 231.923 74.524 C 221.461 60.802,221.346 60.663,220.719 61.050 C 220.544 61.158,220.400 89.102,220.400 123.147 C 220.400 172.374,220.297 185.189,219.895 185.738 C 219.128 186.787,180.879 186.770,180.100 185.720 C 179.705 185.189,179.600 172.041,179.600 123.147 C 179.600 85.931,179.453 61.157,179.232 61.020 C 179.030 60.895,178.581 61.076,178.235 61.422 M179.101 123.905 L 179.203 185.544 180.255 186.372 C 181.286 187.183,181.702 187.200,200.072 187.200 L 218.836 187.200 219.818 186.218 L 220.800 185.236 220.800 123.618 C 220.800 74.579,220.902 62.004,221.300 62.021 C 221.575 62.033,224.366 65.389,227.501 69.480 L 233.203 76.918 233.101 138.959 L 233.000 201.000 200.025 201.102 C 173.910 201.183,166.984 201.100,166.731 200.702 C 166.556 200.426,166.409 172.642,166.406 138.960 L 166.400 77.720 167.500 76.113 C 170.305 72.016,178.243 62.021,178.600 62.137 C 178.864 62.223,179.034 83.255,179.101 123.905 M25.293 188.800 C 25.293 189.570,25.375 189.885,25.476 189.500 C 25.576 189.115,25.576 188.485,25.476 188.100 C 25.375 187.715,25.293 188.030,25.293 188.800 " stroke="none" fill="#560404" fill-rule="evenodd"></path><path id="path5" d="M158.325 87.700 C 156.049 90.615,153.496 93.900,152.653 95.000 C 151.809 96.100,148.212 100.756,144.660 105.346 C 141.107 109.937,137.210 114.991,136.000 116.578 C 134.790 118.164,131.579 122.344,128.864 125.866 L 123.929 132.270 123.981 143.460 C 124.031 154.286,124.005 154.686,123.187 155.725 L 122.342 156.800 115.171 156.800 L 108.000 156.800 108.000 166.020 C 108.000 173.502,107.885 175.462,107.390 176.420 L 106.779 177.600 98.090 177.606 C 87.799 177.613,89.594 176.721,83.190 185.015 C 70.332 201.665,63.644 210.344,61.648 212.970 C 60.464 214.526,59.069 216.309,58.548 216.931 L 57.600 218.061 57.600 254.788 L 57.600 291.515 79.641 313.357 L 101.682 335.200 117.941 335.200 C 126.883 335.199,142.747 335.079,153.194 334.933 L 172.187 334.667 185.950 320.933 C 193.520 313.380,199.868 307.200,200.058 307.200 C 200.248 307.200,206.635 313.320,214.253 320.800 L 228.103 334.400 233.351 334.394 C 239.745 334.386,239.532 334.510,239.202 331.000 C 238.873 327.507,239.003 325.466,239.566 325.278 C 240.306 325.031,240.043 324.068,239.160 323.787 C 238.548 323.593,238.439 323.401,238.760 323.080 C 239.002 322.838,239.200 322.147,239.200 321.544 C 239.200 320.941,239.383 320.334,239.607 320.196 C 239.830 320.058,239.901 319.764,239.764 319.542 C 239.628 319.321,239.436 317.939,239.339 316.470 C 239.242 315.002,239.078 313.552,238.974 313.249 C 238.871 312.946,239.003 312.438,239.267 312.119 C 239.644 311.665,239.637 311.470,239.231 311.219 C 238.947 311.044,238.814 310.562,238.936 310.150 C 239.426 308.495,239.617 304.800,239.213 304.800 C 238.986 304.800,238.800 304.519,238.800 304.176 C 238.800 303.833,238.980 303.664,239.200 303.800 C 239.420 303.936,239.600 303.666,239.600 303.200 C 239.600 302.715,239.422 302.463,239.184 302.610 C 238.789 302.854,238.824 302.506,239.463 299.800 C 239.612 299.172,239.567 299.124,239.254 299.579 C 238.933 300.045,238.803 299.951,238.590 299.102 C 238.286 297.893,238.590 297.200,239.424 297.200 C 240.233 297.200,240.161 295.241,239.318 294.309 C 238.747 293.678,238.718 293.423,239.142 292.744 C 239.450 292.251,239.544 291.455,239.382 290.716 C 239.200 289.887,239.287 289.389,239.657 289.150 C 240.069 288.884,240.084 288.725,239.721 288.489 C 239.405 288.285,239.369 287.978,239.615 287.589 C 240.131 286.773,240.094 284.898,239.557 284.719 C 239.235 284.612,239.234 284.142,239.553 282.986 C 239.838 281.957,239.853 281.353,239.596 281.267 C 239.094 281.098,239.073 279.600,239.573 279.600 C 240.077 279.600,239.835 277.592,239.290 277.256 C 238.791 276.947,239.410 273.351,240.112 272.480 C 240.427 272.090,240.316 271.903,239.670 271.734 C 239.197 271.610,238.900 271.361,239.012 271.180 C 239.124 270.999,239.378 269.554,239.578 267.968 C 239.779 266.367,240.175 264.939,240.468 264.758 C 240.881 264.503,240.826 264.307,240.214 263.860 C 239.520 263.352,239.490 263.160,239.945 262.160 C 240.384 261.198,240.367 260.965,239.830 260.572 C 239.053 260.004,239.021 259.600,239.751 259.600 C 240.885 259.600,241.354 258.454,240.325 258.196 C 239.226 257.920,238.997 255.008,239.981 253.822 C 240.403 253.314,240.418 252.959,240.053 252.156 C 239.697 251.375,239.701 250.756,240.070 249.526 C 240.495 248.105,240.470 247.871,239.854 247.526 C 239.269 247.199,239.240 247.033,239.678 246.506 C 240.322 245.729,240.294 240.698,239.644 240.481 C 238.981 240.260,239.085 238.000,239.758 238.000 C 240.101 238.000,240.313 237.577,240.310 236.900 C 240.300 235.075,239.999 233.953,239.588 234.207 C 239.009 234.565,239.119 233.738,239.732 233.125 C 240.438 232.419,240.869 229.690,240.328 229.355 C 240.080 229.202,239.988 228.264,240.104 227.062 C 240.212 225.935,240.107 224.719,239.867 224.336 C 239.532 223.800,239.607 223.455,240.202 222.798 C 240.826 222.109,240.867 221.888,240.422 221.614 C 239.725 221.183,240.140 215.212,240.901 214.729 C 241.234 214.517,241.249 214.410,240.945 214.406 C 240.465 214.400,239.975 212.158,240.369 211.764 C 240.781 211.353,240.715 204.610,240.297 204.344 C 239.805 204.030,240.274 201.200,240.818 201.200 C 241.028 201.200,241.200 200.908,241.200 200.551 C 241.200 200.020,241.091 199.992,240.600 200.400 C 240.000 200.898,239.947 200.835,239.840 199.500 C 239.818 199.225,240.070 198.992,240.400 198.982 C 241.033 198.963,241.060 198.753,240.619 197.300 C 240.455 196.758,240.516 196.400,240.773 196.400 C 241.008 196.400,241.200 196.130,241.200 195.800 C 241.200 195.470,241.020 195.200,240.800 195.200 C 240.580 195.200,240.403 194.795,240.406 194.300 C 240.411 193.645,240.506 193.547,240.755 193.941 C 240.998 194.324,241.150 194.120,241.279 193.241 C 241.380 192.558,241.320 192.000,241.147 192.000 C 240.974 192.000,240.833 191.505,240.833 190.900 C 240.835 188.708,240.318 186.843,239.659 186.668 C 239.076 186.513,239.080 186.487,239.692 186.446 C 240.076 186.421,240.497 185.954,240.636 185.400 C 240.774 184.850,241.017 184.400,241.177 184.400 C 241.336 184.400,241.467 183.860,241.467 183.200 C 241.467 182.519,241.255 182.000,240.976 182.000 C 240.022 182.000,239.969 180.721,240.890 179.922 C 241.723 179.199,241.739 179.110,241.096 178.750 C 240.251 178.277,240.160 176.175,240.965 175.720 C 241.442 175.450,241.451 175.089,241.019 173.400 C 240.503 171.384,240.579 170.400,241.250 170.400 C 241.727 170.400,241.207 168.285,240.640 167.916 C 240.354 167.729,240.464 167.441,240.963 167.077 C 241.486 166.694,241.578 166.434,241.261 166.237 C 240.446 165.734,240.716 164.685,241.600 164.916 C 242.553 165.165,242.547 165.208,241.834 163.308 C 241.002 161.090,240.679 157.316,241.300 157.064 C 241.676 156.911,241.651 156.756,241.200 156.437 C 240.661 156.055,240.898 155.826,241.700 155.953 C 242.227 156.036,242.022 155.506,241.300 154.919 C 240.791 154.505,240.736 154.293,241.100 154.142 C 241.817 153.843,241.720 153.068,241.000 153.345 C 240.289 153.617,240.254 153.420,240.823 152.357 C 241.241 151.577,241.713 148.101,241.710 145.834 C 241.709 145.193,241.421 144.458,241.069 144.201 C 240.502 143.786,240.496 143.640,241.021 142.891 C 241.542 142.147,241.542 141.844,241.023 140.337 C 240.498 138.812,240.501 138.551,241.052 137.942 C 241.492 137.457,241.670 136.412,241.670 134.330 C 241.670 132.718,241.860 131.171,242.092 130.890 C 242.324 130.610,242.443 130.340,242.357 130.290 C 242.271 130.241,241.861 130.013,241.446 129.785 C 240.554 129.295,240.579 128.543,241.482 128.730 C 242.004 128.838,242.068 128.587,241.857 127.264 C 241.689 126.215,241.758 125.614,242.058 125.514 C 242.397 125.401,242.392 125.133,242.039 124.473 C 241.777 123.984,241.691 123.377,241.847 123.124 C 242.026 122.834,241.921 122.745,241.564 122.882 C 241.251 123.002,240.765 122.852,240.482 122.550 C 240.060 122.098,240.087 122.000,240.634 122.000 C 241.163 122.000,241.250 121.749,241.056 120.780 C 240.922 120.109,240.953 119.647,241.125 119.754 C 241.837 120.194,242.430 119.330,242.077 118.367 C 241.882 117.835,241.740 115.825,241.761 113.900 C 241.788 111.453,241.658 110.400,241.327 110.400 C 241.046 110.400,240.908 109.954,240.986 109.300 C 241.058 108.695,241.316 108.245,241.559 108.300 C 242.072 108.416,242.157 107.744,241.667 107.442 C 241.271 107.197,241.294 103.592,241.696 102.958 C 242.124 102.282,241.794 99.465,241.267 99.289 C 240.465 99.022,240.754 97.933,241.883 96.962 C 242.873 96.112,242.891 96.051,242.083 96.262 C 241.106 96.518,240.856 95.704,241.663 94.897 C 242.014 94.546,242.002 94.284,241.614 93.817 C 241.331 93.476,241.282 93.200,241.504 93.200 C 243.118 93.200,242.133 89.468,239.654 86.194 L 237.600 83.481 237.600 142.960 C 237.600 206.382,237.663 204.230,235.778 204.953 C 235.420 205.090,232.938 205.115,230.263 205.007 C 227.589 204.900,211.630 204.716,194.800 204.598 C 166.822 204.403,164.157 204.327,163.700 203.716 C 163.305 203.188,163.200 190.359,163.200 142.724 C 163.200 106.190,163.055 82.400,162.831 82.400 C 162.629 82.400,160.601 84.785,158.325 87.700 M148.400 104.299 C 148.400 104.416,148.085 104.753,147.700 105.048 C 147.129 105.486,147.100 105.651,147.543 105.942 C 147.921 106.192,147.952 106.383,147.643 106.574 C 147.091 106.915,147.056 108.400,147.600 108.400 C 147.820 108.400,148.000 108.655,148.000 108.967 C 148.000 109.278,148.225 109.624,148.500 109.735 C 148.775 109.846,148.595 109.951,148.100 109.968 C 147.151 110.002,146.847 111.015,147.700 111.302 C 148.083 111.430,148.091 111.602,147.735 112.035 C 147.418 112.420,147.330 113.927,147.461 116.760 C 147.606 119.924,147.527 120.998,147.128 121.244 C 146.722 121.496,146.783 121.701,147.402 122.160 C 148.083 122.665,148.127 122.871,147.700 123.570 C 147.425 124.021,147.200 124.830,147.200 125.369 C 147.200 125.907,147.013 126.840,146.784 127.441 C 146.485 128.228,146.497 128.612,146.825 128.815 C 147.396 129.168,147.727 141.074,147.175 141.415 C 146.660 141.734,146.701 143.100,147.232 143.277 C 147.533 143.378,147.515 143.748,147.173 144.499 C 146.788 145.345,146.787 145.702,147.169 146.163 C 147.513 146.577,147.537 146.971,147.249 147.508 C 147.026 147.925,146.909 149.453,146.989 150.903 C 147.100 152.910,146.999 153.592,146.567 153.757 C 145.732 154.078,145.878 155.107,146.800 155.400 C 147.709 155.689,147.879 157.144,147.100 157.970 C 146.700 158.394,146.700 158.537,147.100 158.683 C 147.375 158.784,147.600 159.222,147.600 159.657 C 147.600 160.102,147.418 160.335,147.184 160.190 C 146.916 160.025,146.857 160.286,147.016 160.923 C 147.155 161.473,147.073 162.031,146.832 162.180 C 146.161 162.595,146.320 163.086,147.200 163.316 C 148.130 163.559,148.285 164.400,147.400 164.400 C 147.070 164.400,146.787 164.625,146.772 164.900 C 146.756 165.175,146.589 165.040,146.400 164.600 C 146.098 163.897,146.053 163.937,146.028 164.927 C 146.004 165.877,146.126 166.014,146.800 165.800 C 147.355 165.624,147.600 165.728,147.600 166.140 C 147.600 167.171,147.135 168.000,146.557 168.000 C 145.840 168.000,145.852 168.309,146.599 169.056 C 147.064 169.522,147.100 169.840,146.758 170.479 C 146.487 170.985,146.463 171.398,146.696 171.551 C 147.401 172.015,147.647 174.400,146.990 174.400 C 146.666 174.400,146.400 174.670,146.400 175.000 C 146.400 175.330,146.653 175.600,146.962 175.600 C 147.586 175.600,147.380 178.882,146.740 179.133 C 146.263 179.320,146.314 180.400,146.800 180.400 C 147.020 180.400,147.200 181.030,147.200 181.800 C 147.200 182.570,147.018 183.200,146.797 183.200 C 146.418 183.200,146.559 186.371,147.041 188.734 C 147.146 189.247,147.069 189.566,146.869 189.443 C 146.310 189.097,145.920 192.822,146.449 193.459 C 146.781 193.859,146.781 194.000,146.449 194.000 C 146.202 194.000,146.000 194.360,146.000 194.800 C 146.000 195.333,146.267 195.600,146.800 195.600 C 147.240 195.600,147.600 195.763,147.600 195.963 C 147.600 196.162,147.240 196.231,146.800 196.116 C 145.799 195.854,145.737 196.698,146.700 197.481 C 147.209 197.895,147.264 198.107,146.900 198.258 C 146.303 198.507,146.234 199.850,146.800 200.200 C 147.386 200.562,147.288 201.200,146.646 201.200 C 146.216 201.200,146.129 201.747,146.260 203.642 C 146.368 205.209,146.253 206.295,145.940 206.673 C 145.552 207.140,145.566 207.332,146.012 207.607 C 146.740 208.057,146.631 214.802,145.888 215.284 C 145.517 215.524,145.544 215.696,146.000 216.000 C 146.527 216.351,146.528 216.446,146.012 216.778 C 145.345 217.206,145.735 217.787,146.694 217.795 C 147.044 217.798,147.407 218.025,147.499 218.300 C 147.591 218.575,147.456 218.800,147.197 218.800 C 146.528 218.800,145.195 220.550,145.650 220.831 C 146.340 221.257,146.421 230.800,145.735 230.800 C 145.359 230.800,145.224 231.053,145.360 231.500 C 146.640 235.688,146.756 236.786,146.118 238.658 C 145.514 240.431,145.520 240.553,146.241 241.087 C 146.932 241.599,146.942 241.692,146.352 242.130 C 145.577 242.706,144.932 245.200,145.558 245.200 C 145.814 245.200,145.885 245.674,145.740 246.400 C 145.548 247.358,145.638 247.600,146.182 247.600 C 146.748 247.600,146.811 247.820,146.553 248.900 C 146.383 249.615,146.271 250.695,146.305 251.300 C 146.340 251.905,146.190 252.400,145.972 252.400 C 145.520 252.400,145.663 256.730,146.140 257.503 C 146.309 257.776,146.312 258.218,146.147 258.485 C 145.619 259.341,145.306 262.369,145.731 262.510 C 145.994 262.598,145.977 263.091,145.683 263.933 C 145.226 265.244,145.395 266.400,146.043 266.400 C 146.239 266.400,146.400 266.580,146.400 266.800 C 146.400 267.020,146.130 267.200,145.800 267.200 C 145.470 267.200,145.200 267.470,145.200 267.800 C 145.200 268.130,145.380 268.400,145.600 268.400 C 145.820 268.400,146.000 268.850,146.000 269.400 C 146.000 270.345,145.657 270.580,144.500 270.430 C 144.225 270.394,144.000 270.519,144.000 270.707 C 144.000 271.297,145.603 272.800,146.231 272.800 C 146.699 272.800,146.651 272.993,146.015 273.676 C 145.563 274.162,145.370 274.658,145.582 274.789 C 146.013 275.055,145.765 278.832,145.294 279.177 C 144.879 279.482,144.805 281.600,145.209 281.600 C 145.387 281.600,145.609 281.465,145.701 281.300 C 145.793 281.135,145.785 281.270,145.683 281.600 C 145.186 283.204,145.143 284.000,145.553 284.000 C 145.799 284.000,146.000 284.180,146.000 284.400 C 146.000 284.620,145.640 284.800,145.200 284.800 C 144.760 284.800,144.400 284.980,144.400 285.200 C 144.400 285.420,144.560 285.600,144.755 285.600 C 145.262 285.600,145.578 288.111,145.139 288.658 C 144.905 288.950,144.994 289.337,145.386 289.729 C 146.204 290.547,146.160 290.800,145.200 290.800 C 144.207 290.800,144.202 291.092,145.168 292.557 C 145.978 293.786,145.904 296.278,145.038 296.930 C 144.728 297.165,144.746 297.320,145.100 297.464 C 145.693 297.704,145.779 299.200,145.200 299.200 C 144.626 299.200,144.706 300.289,145.300 300.567 C 145.700 300.753,145.700 300.847,145.300 301.033 C 144.692 301.317,144.632 302.400,145.225 302.400 C 145.717 302.400,145.315 305.929,144.739 306.653 C 144.509 306.944,144.599 307.191,144.990 307.341 C 145.491 307.533,145.569 308.171,145.421 310.877 C 145.317 312.788,145.405 314.279,145.630 314.418 C 145.868 314.565,145.769 315.255,145.376 316.197 C 144.873 317.400,144.830 317.947,145.178 318.712 C 145.505 319.429,145.505 319.832,145.179 320.226 C 144.685 320.820,145.028 322.400,145.651 322.400 C 145.869 322.400,145.941 322.572,145.811 322.783 C 145.681 322.993,145.310 323.064,144.987 322.940 C 144.126 322.609,144.271 323.331,145.200 324.000 C 146.133 324.673,146.238 325.200,145.438 325.200 C 144.992 325.200,144.922 325.708,145.099 327.661 C 145.277 329.628,145.217 330.058,144.799 329.799 C 144.270 329.472,144.315 330.130,145.015 332.918 C 145.356 334.278,144.843 334.314,121.054 334.616 L 101.907 334.860 91.054 324.113 C 85.084 318.203,75.205 308.437,69.100 302.410 L 58.000 291.453 58.000 254.854 L 58.000 218.255 60.300 215.248 C 63.338 211.275,75.138 195.993,77.323 193.200 C 78.270 191.990,80.912 188.570,83.193 185.600 C 85.474 182.630,87.792 179.705,88.345 179.100 L 89.350 178.000 98.048 178.000 L 106.746 178.000 107.573 176.838 C 108.352 175.744,108.400 175.137,108.400 166.438 L 108.400 157.200 115.573 157.200 L 122.746 157.200 123.573 156.038 C 124.362 154.930,124.400 154.359,124.400 143.622 L 124.400 132.368 128.093 127.684 C 130.124 125.108,132.509 122.089,133.393 120.976 C 134.277 119.863,136.440 117.091,138.200 114.817 C 139.960 112.542,141.589 110.483,141.820 110.241 C 142.051 109.998,143.209 108.540,144.392 107.000 C 146.868 103.777,148.400 102.745,148.400 104.299 M146.279 177.357 C 146.115 177.774,146.075 178.209,146.191 178.324 C 146.555 178.689,146.876 178.091,146.724 177.331 C 146.583 176.635,146.562 176.636,146.279 177.357 " stroke="none" fill="#040d62" fill-rule="evenodd"></path><path id="path6" d="M191.200 44.637 C 186.690 50.501,182.820 55.625,182.600 56.023 C 182.336 56.502,182.268 78.295,182.400 120.274 L 182.600 183.800 200.000 183.800 L 217.400 183.800 217.501 119.966 L 217.602 56.132 209.158 45.166 C 204.513 39.135,200.418 34.150,200.057 34.088 C 199.610 34.012,196.774 37.391,191.200 44.637 M208.797 45.539 L 217.200 56.478 217.200 119.839 L 217.200 183.200 200.000 183.200 L 182.800 183.200 182.800 119.835 L 182.800 56.470 185.500 52.925 C 194.876 40.615,199.791 34.397,200.072 34.492 C 200.250 34.551,204.176 39.523,208.797 45.539 M116.701 141.700 C 114.832 144.175,112.110 147.714,110.652 149.565 C 107.241 153.894,107.004 153.638,114.300 153.510 L 120.600 153.400 120.708 145.300 C 120.770 140.699,120.661 137.200,120.457 137.200 C 120.260 137.200,118.569 139.225,116.701 141.700 M279.292 145.300 L 279.400 153.400 285.700 153.510 C 289.165 153.571,291.999 153.481,291.998 153.310 C 291.997 153.140,290.454 151.020,288.569 148.600 C 286.684 146.180,283.957 142.625,282.510 140.700 C 281.064 138.775,279.723 137.200,279.532 137.200 C 279.340 137.200,279.232 140.845,279.292 145.300 M120.046 139.639 C 119.795 140.359,119.600 143.521,119.600 146.860 L 119.600 152.800 114.900 152.805 C 112.315 152.808,109.756 152.930,109.213 153.075 C 108.370 153.300,108.610 152.845,110.849 149.970 C 114.141 145.743,116.406 142.798,118.464 140.069 C 120.203 137.764,120.752 137.614,120.046 139.639 M281.453 140.100 C 282.289 141.255,283.083 142.290,283.217 142.400 C 283.460 142.599,286.622 146.683,289.668 150.731 C 290.550 151.903,291.210 152.893,291.136 152.931 C 291.061 152.969,288.627 152.945,285.727 152.878 L 280.453 152.756 280.295 146.278 C 280.207 142.715,279.994 139.395,279.821 138.900 C 279.323 137.476,279.813 137.836,281.453 140.100 M97.911 166.100 C 94.490 170.555,91.771 174.335,91.869 174.500 C 92.081 174.856,103.252 174.908,104.167 174.557 C 104.866 174.289,105.159 158.000,104.466 158.000 C 104.282 158.000,101.333 161.645,97.911 166.100 M295.200 166.157 C 295.200 175.781,294.402 174.800,302.233 174.800 C 309.106 174.800,308.942 175.104,304.910 169.836 C 303.210 167.616,300.483 164.045,298.850 161.900 C 297.216 159.755,295.727 158.000,295.540 158.000 C 295.353 158.000,295.200 161.671,295.200 166.157 M104.046 160.439 C 103.795 161.159,103.600 164.321,103.600 167.660 L 103.600 173.600 98.900 173.605 C 96.315 173.608,93.756 173.730,93.213 173.875 C 92.370 174.100,92.610 173.645,94.849 170.770 C 98.141 166.543,100.406 163.598,102.464 160.869 C 104.203 158.564,104.752 158.414,104.046 160.439 M298.768 162.500 C 300.317 164.535,302.957 167.981,304.635 170.158 C 307.106 173.364,307.507 174.068,306.743 173.863 C 306.224 173.725,303.700 173.608,301.134 173.605 L 296.469 173.600 296.293 167.100 C 296.196 163.525,295.980 160.195,295.812 159.700 C 295.282 158.136,295.874 158.697,298.768 162.500 " stroke="none" fill="#747474" fill-rule="evenodd"></path></g></svg>